<?xml version="1.0" standalone="no"?>
<!DOCTYPE svg PUBLIC "-//W3C//DTD SVG 20010904//EN"
 "http://www.w3.org/TR/2001/REC-SVG-20010904/DTD/svg10.dtd">
<svg version="1.0" xmlns="http://www.w3.org/2000/svg"
 width="901.000000pt" height="2193.000000pt" viewBox="0 0 901.000000 2193.000000"
 preserveAspectRatio="xMidYMid meet">
<metadata>
Created by potrace 1.15, written by Peter Selinger 2001-2017
</metadata>
<g transform="translate(0.000000,2193.000000) scale(0.100000,-0.100000)"
fill="#000000" stroke="none">
<path d="M4330 21524 c-41 -2 -230 -15 -420 -29 -190 -13 -421 -29 -515 -35
-93 -7 -233 -22 -310 -35 -160 -27 -774 -189 -898 -236 -415 -160 -905 -493
-1042 -709 -16 -25 -34 -49 -40 -55 -5 -5 -27 -50 -48 -98 -21 -49 -53 -112
-71 -140 -125 -195 -156 -327 -176 -745 -12 -252 -12 -2097 0 -2514 14 -486
26 -568 111 -797 l52 -136 -6 -120 c-4 -66 -11 -203 -16 -305 -12 -219 -28
-776 -37 -1303 l-7 -379 -41 -25 c-219 -137 -358 -250 -390 -317 -19 -40 -21
-153 -4 -191 21 -47 95 -46 250 4 51 16 113 31 138 33 l45 3 -1 -540 c-1 -558
-15 -1075 -37 -1345 -15 -198 -15 -484 0 -820 16 -332 31 -1121 38 -2005 3
-374 8 -855 11 -1070 l6 -390 -45 -100 c-124 -278 -136 -401 -144 -1420 -6
-753 0 -984 38 -1505 37 -519 83 -911 118 -1019 11 -31 22 -70 25 -87 4 -18
26 -63 50 -101 24 -39 48 -85 54 -103 16 -45 30 -211 42 -505 12 -285 27 -505
40 -585 6 -30 15 -91 21 -135 16 -110 34 -149 108 -227 111 -118 224 -191 470
-303 194 -88 262 -110 651 -210 395 -102 540 -135 695 -159 578 -90 2101 -112
2845 -41 358 35 609 79 990 174 463 117 649 184 950 343 218 115 298 183 335
287 39 111 61 316 100 916 15 231 32 421 40 450 8 28 32 79 55 113 81 125 109
208 135 386 20 139 72 953 85 1326 19 571 6 1921 -20 2065 -6 33 -36 132 -67
220 -54 157 -55 163 -65 320 -6 109 -5 593 3 1505 16 1594 17 2686 5 3769 l-9
794 29 -5 c16 -3 82 -21 147 -42 117 -36 215 -47 245 -27 17 10 31 72 32 132
0 33 -8 57 -28 90 -48 74 -259 253 -371 314 l-51 28 0 216 c0 530 -31 1280
-66 1616 -24 237 -23 288 13 365 17 36 54 124 82 197 l51 132 0 1453 c0 1399
-7 1836 -30 1984 -19 125 -46 195 -131 334 -45 74 -109 187 -142 250 -45 84
-80 134 -131 188 -76 80 -254 228 -291 242 -12 5 -37 23 -56 40 -42 38 -347
190 -524 260 -146 58 -712 217 -905 254 -157 31 -228 39 -685 77 -324 27 -423
31 -790 34 -231 1 -454 1 -495 -1z m-1330 -234 c0 -32 -62 -86 -125 -109 -33
-13 -179 -52 -325 -87 -146 -36 -324 -82 -396 -104 -160 -49 -238 -64 -261
-51 -15 8 -14 12 15 39 40 37 191 111 297 145 77 24 452 129 583 162 77 19
171 32 195 27 9 -2 17 -12 17 -22z m3541 -24 c488 -124 834 -241 852 -291 4
-8 15 -15 26 -15 11 0 23 -5 27 -11 5 -9 -7 -10 -44 -5 -47 6 -111 23 -462
122 -69 19 -192 46 -274 60 -208 35 -272 58 -313 112 -39 52 -42 72 -10 72 13
0 102 -20 198 -44z m-1011 -116 c91 -6 213 -17 272 -25 59 -8 196 -20 305 -26
109 -5 203 -12 209 -14 15 -4 85 -171 91 -216 5 -32 2 -39 -22 -55 -63 -41
-580 -36 -1105 12 -372 34 -1003 24 -1475 -23 -168 -17 -776 -30 -854 -18
l-43 7 5 43 c5 45 60 173 98 226 16 23 28 29 57 29 20 0 114 9 207 20 190 21
395 37 655 50 235 11 1394 4 1600 -10z m-2710 -105 c9 -11 9 -20 -3 -42 -9
-15 -21 -61 -28 -100 -7 -40 -19 -79 -28 -87 -27 -24 -163 -65 -250 -75 -45
-5 -87 -13 -94 -19 -6 -5 -25 -12 -42 -14 -38 -6 -366 -72 -460 -93 -142 -30
-269 -46 -320 -40 -67 9 -76 18 -63 58 22 67 44 107 58 107 8 0 65 25 125 55
82 40 150 65 265 94 270 70 637 149 765 164 58 7 63 7 75 -8z m3897 -31 c98
-20 277 -58 398 -86 216 -49 267 -60 363 -76 71 -13 156 -61 187 -106 33 -49
27 -86 -21 -122 -33 -25 -38 -26 -117 -19 -45 4 -100 15 -122 25 -22 10 -112
30 -200 44 -88 14 -189 32 -225 40 -36 8 -87 17 -114 20 -26 3 -68 13 -92 21
-24 8 -74 19 -111 25 -85 14 -123 45 -123 99 1 49 -10 110 -21 117 -15 9 -10
54 6 54 8 0 95 -16 192 -36z m-1332 -274 c110 -5 261 -14 335 -21 144 -12 663
-8 692 5 30 14 39 -30 59 -277 32 -399 89 -829 165 -1232 65 -353 74 -410 81
-507 12 -187 0 -142 -138 517 -49 237 -119 556 -154 710 -35 154 -84 370 -109
480 -49 223 -59 255 -80 255 -17 0 -26 -21 -26 -61 0 -34 178 -848 271 -1239
94 -398 175 -766 245 -1125 127 -642 325 -1550 343 -1568 6 -6 26 -5 55 3 37
10 46 17 46 35 0 42 -130 765 -229 1275 -164 845 -196 1025 -315 1761 -33 201
-48 351 -76 735 -6 83 -13 175 -17 203 -5 45 -4 51 12 51 34 0 528 -90 695
-127 91 -20 205 -44 254 -53 84 -15 91 -18 102 -45 26 -65 43 -287 69 -900 8
-198 17 -392 20 -432 3 -40 10 -211 15 -380 6 -206 13 -318 21 -338 l13 -30 3
30 c7 60 13 75 32 75 22 0 31 -19 31 -63 0 -32 -24 -67 -46 -67 -24 0 -27 -69
-15 -329 6 -141 18 -503 26 -806 9 -302 21 -597 27 -655 14 -139 22 -713 13
-1018 l-7 -243 -172 168 c-271 267 -439 390 -721 528 -213 104 -275 125 -670
224 -367 92 -472 114 -640 135 -449 57 -1411 60 -1832 6 -198 -26 -321 -51
-684 -143 -239 -61 -320 -86 -435 -135 -218 -94 -541 -254 -624 -310 -51 -34
-143 -119 -277 -256 -210 -215 -235 -233 -250 -178 -12 40 -10 195 4 377 19
234 33 614 43 1169 5 270 14 550 19 621 30 387 52 859 86 1815 25 711 44 1056
61 1142 4 22 12 28 47 33 59 10 330 62 472 91 265 55 384 75 474 81 l94 6 -6
-194 c-3 -107 -11 -234 -17 -284 -5 -49 -13 -112 -16 -140 -35 -316 -105 -722
-294 -1715 -158 -836 -250 -1350 -275 -1546 -17 -133 -12 -168 27 -183 30 -11
48 4 48 40 0 31 43 229 95 439 42 171 103 452 150 690 19 102 65 318 101 480
79 357 105 477 139 640 66 315 88 416 126 575 84 356 184 809 204 926 24 136
17 219 -14 161 -6 -10 -19 -68 -31 -128 -26 -135 -60 -293 -105 -489 -50 -218
-196 -875 -249 -1125 -26 -118 -62 -282 -81 -365 -19 -82 -46 -202 -60 -265
-30 -143 -73 -293 -74 -262 -2 49 42 299 158 907 133 696 187 1075 230 1620
l16 210 30 -1 c17 -1 84 -7 150 -14 79 -8 199 -10 351 -6 204 5 298 12 609 46
97 11 1103 4 1380 -10z m-3951 -149 c21 -17 58 -38 84 -47 26 -9 67 -25 91
-36 l44 -18 -8 -43 c-3 -23 -10 -254 -13 -513 -7 -504 -7 -504 -58 -504 -46 0
-46 3 -74 -655 -11 -253 -29 -635 -40 -850 -11 -214 -26 -592 -35 -840 -33
-1000 -65 -1466 -130 -1865 -7 -47 -17 -121 -20 -165 -10 -128 -40 -130 -56
-4 -13 107 -14 109 -58 109 -41 0 -57 13 -87 70 -17 31 -19 64 -22 265 -2 127
3 514 12 860 33 1356 43 2437 24 2880 -13 314 -14 768 -3 934 4 57 14 101 29
135 13 28 27 62 31 75 8 27 142 189 182 221 35 28 64 25 107 -9z m6598 -103
c102 -104 195 -228 209 -281 9 -32 9 -162 0 -557 -21 -949 -8 -3174 22 -3650
14 -229 14 -609 -1 -696 -8 -46 -20 -75 -47 -110 -41 -54 -55 -64 -55 -40 0
26 -28 18 -43 -11 -8 -16 -25 -59 -38 -98 l-23 -70 -38 300 c-20 165 -44 354
-52 420 -20 156 -32 405 -51 1025 -26 881 -45 1291 -80 1790 -8 113 -19 331
-25 485 -16 419 -20 482 -35 502 -10 14 -16 15 -25 6 -13 -12 -11 -51 9 -183
13 -84 17 -599 6 -673 -6 -36 -10 -46 -19 -37 -7 7 -13 127 -18 373 -4 199
-11 484 -17 632 -12 300 -15 795 -5 845 5 25 15 36 42 47 19 8 53 26 76 41 22
15 48 30 56 33 30 12 77 -16 152 -93z m-7013 -1407 c7 -552 16 -1130 21 -1285
6 -175 6 -330 0 -411 -10 -131 -24 -524 -36 -1000 l-7 -259 -58 116 -58 117
-17 926 c-18 1086 -15 1715 9 1815 16 64 28 189 46 502 9 137 13 162 35 207
34 66 35 94 2 85 -13 -3 -27 -1 -30 5 -14 22 57 213 73 195 4 -5 13 -461 20
-1013z m7360 892 c72 -143 82 -422 82 -2166 l-1 -1397 -68 -125 -67 -125 -7
53 c-24 165 -16 3695 8 3775 10 33 31 27 53 -15z m-3099 -3582 c197 -17 395
-41 525 -63 154 -26 458 -101 510 -126 22 -11 65 -25 95 -32 246 -56 611 -221
845 -381 142 -97 341 -285 253 -238 -13 7 -88 55 -168 107 -159 104 -465 273
-575 317 -239 96 -857 249 -1145 284 -241 29 -1144 49 -1480 32 -338 -16 -760
-82 -1108 -172 -402 -104 -666 -219 -1012 -442 -209 -134 -220 -140 -227 -133
-12 12 188 198 274 255 84 57 487 260 617 311 129 51 639 188 796 215 178 30
365 51 575 65 88 6 185 12 215 14 109 7 888 -3 1010 -13z m-50 -151 c218 -17
479 -47 604 -70 235 -45 661 -160 843 -230 112 -43 442 -206 569 -282 135 -81
214 -142 214 -169 0 -27 -28 -18 -99 32 -65 46 -179 92 -541 215 -303 102
-316 105 -610 134 -254 25 -367 42 -593 86 -213 42 -268 58 -440 131 -203 85
-306 113 -422 113 -117 0 -155 -26 -170 -112 l-6 -38 -143 0 c-258 0 -896 -72
-1016 -115 -70 -25 -178 -51 -387 -95 -106 -21 -225 -50 -265 -64 -92 -31
-105 -33 -268 -46 -266 -21 -380 -71 -380 -166 0 -73 56 -137 100 -114 10 5
33 27 52 48 70 81 122 101 130 50 5 -39 102 -30 283 27 710 223 1409 344 1988
345 l177 0 0 49 c0 57 18 81 58 81 37 0 251 -74 270 -94 14 -14 14 -17 0 -33
-54 -63 1 -103 142 -103 143 0 741 -80 1015 -136 320 -66 623 -148 883 -240
274 -98 301 -105 323 -93 16 8 19 17 14 40 -4 16 -2 29 3 29 11 0 123 -84 201
-149 l54 -46 -6 -85 c-3 -47 -19 -154 -36 -239 -18 -84 -34 -188 -37 -230 -7
-89 -31 -230 -74 -431 -17 -80 -56 -263 -86 -407 -30 -144 -66 -295 -80 -335
-14 -40 -45 -147 -69 -238 -24 -91 -54 -194 -67 -230 -21 -60 -26 -65 -54 -68
-43 -4 -163 28 -394 104 -107 36 -296 92 -420 124 -124 33 -247 66 -273 75
-49 14 -451 95 -578 115 -441 69 -1180 79 -1763 25 -253 -24 -372 -44 -501
-85 -66 -21 -140 -40 -165 -43 -57 -6 -394 -84 -435 -102 -18 -7 -56 -18 -86
-24 -77 -16 -206 -59 -259 -85 -25 -13 -71 -26 -103 -29 -32 -4 -86 -19 -120
-33 -66 -27 -158 -41 -201 -30 -35 9 -49 41 -81 181 -14 66 -44 181 -65 255
-94 330 -274 1165 -335 1558 l-36 234 47 51 c81 88 148 148 184 164 19 8 118
73 220 143 102 70 210 143 240 162 213 134 528 261 865 348 264 68 697 146
940 170 61 5 128 12 150 14 82 8 956 -3 1095 -14z m-4135 -1150 c14 -27 34
-83 46 -125 19 -71 20 -85 9 -248 -6 -95 -14 -285 -19 -424 -10 -269 -14 -290
-64 -327 -52 -38 -52 -39 -52 487 1 442 10 655 31 688 9 15 23 0 49 -51z
m7194 -345 c13 -307 14 -755 2 -773 -15 -24 -62 -3 -78 36 -17 41 -29 224 -38
582 -7 303 -1 360 52 465 l38 77 7 -64 c4 -34 11 -180 17 -323z m-6785 8 c105
-532 212 -1002 247 -1081 10 -24 23 -81 29 -126 14 -116 136 -595 159 -626 10
-14 27 -27 37 -29 36 -6 52 -32 63 -99 34 -213 64 -530 91 -952 11 -179 22
-332 25 -340 5 -17 22 -741 34 -1460 10 -574 -3 -2674 -18 -2960 -22 -419 -94
-940 -281 -2050 -50 -300 -74 -454 -100 -665 -34 -268 -41 -295 -68 -262 -44
54 -201 532 -280 857 -48 193 -116 750 -110 890 7 140 41 229 303 790 81 173
160 355 176 404 59 178 76 347 89 856 12 471 12 2858 0 3680 -14 962 -30 1126
-150 1596 -165 640 -188 741 -279 1229 -78 420 -78 413 -50 513 12 45 25 82
28 82 4 0 28 -111 55 -247z m6386 160 c15 -57 20 -99 17 -140 -7 -88 -101
-571 -184 -948 -30 -137 -61 -277 -68 -310 -22 -98 -114 -491 -145 -615 -80
-322 -100 -916 -100 -2935 0 -1355 9 -1987 35 -2503 l16 -317 76 -185 c41
-102 140 -317 220 -478 202 -409 222 -466 230 -632 8 -175 -47 -621 -112 -912
-60 -268 -249 -835 -281 -845 -16 -5 -29 56 -59 277 -14 102 -44 284 -65 405
-72 405 -189 1147 -230 1452 -22 165 -44 313 -50 327 -14 38 -28 272 -42 721
-8 263 -13 922 -13 1920 0 1506 0 1526 28 2135 30 688 48 962 78 1222 30 263
51 330 108 343 42 9 49 21 71 122 25 113 90 366 140 545 22 76 51 193 66 260
14 68 48 211 74 318 54 216 96 430 135 681 14 91 25 169 25 174 0 20 9 -6 30
-82z m-6449 -643 c37 -203 81 -390 208 -894 102 -401 143 -610 161 -821 14
-174 29 -622 40 -1254 13 -740 13 -1098 -1 -1107 -29 -17 -255 123 -458 283
l-73 58 2 1130 c2 1213 10 1842 24 1864 5 7 28 22 51 32 69 31 69 30 51 196
-32 281 -38 327 -53 367 -17 49 -29 282 -18 351 l8 50 14 -45 c7 -25 27 -119
44 -210z m6499 29 c0 -105 -4 -138 -19 -172 -12 -28 -21 -79 -25 -152 -4 -60
-18 -166 -31 -234 l-25 -124 75 -71 74 -71 6 -625 c3 -344 10 -697 15 -785 11
-190 11 -706 1 -1189 l-7 -348 -35 -29 c-80 -68 -474 -319 -500 -319 -14 0
-19 99 -23 470 -7 650 22 1493 65 1920 19 195 112 630 199 930 44 153 60 220
130 550 72 338 82 380 91 380 5 0 9 -59 9 -131z m-6705 -418 c127 -59 195
-192 132 -255 -38 -38 -545 -196 -727 -228 -107 -18 -144 5 -126 78 10 40 120
149 213 211 93 62 316 177 383 198 60 18 78 18 125 -4z m7093 -57 c276 -139
444 -268 473 -364 11 -35 10 -42 -6 -60 -27 -29 -66 -25 -227 24 -78 25 -228
70 -333 101 -285 84 -330 116 -291 203 20 44 104 131 151 156 45 24 86 14 233
-60z m-7152 -516 c5 -101 8 -1796 6 -3768 -2 -3441 -3 -3586 -20 -3610 -20
-27 -100 -74 -144 -85 l-28 -7 0 58 c0 33 5 111 10 174 5 63 12 144 15 180 3
36 12 142 20 235 19 215 19 401 0 485 -33 145 -37 538 -32 2665 4 1886 0 2683
-18 3500 l-7 281 79 37 c43 20 85 37 94 37 15 0 18 -24 25 -182z m7127 135
l30 -6 -8 -536 c-4 -295 -11 -759 -15 -1031 -3 -272 -4 -853 -1 -1290 3 -437
6 -1373 6 -2080 0 -1160 -2 -1297 -17 -1410 -30 -218 -40 -378 -28 -455 29
-192 60 -565 60 -727 l0 -48 -37 0 c-46 0 -106 26 -152 66 l-34 28 6 476 c4
261 9 673 12 915 3 242 7 508 10 590 3 83 8 726 11 1430 6 1132 -3 2488 -21
3190 -11 438 -15 892 -8 899 8 8 127 1 186 -11z m-3143 -63 c91 -5 208 -15
260 -20 215 -25 787 -146 1181 -251 138 -36 480 -153 540 -185 37 -18 37 -34
5 -230 -101 -616 -116 -1068 -116 -3554 0 -2020 7 -2337 61 -2805 12 -105 19
-203 15 -218 -11 -47 -40 -56 -287 -87 -129 -16 -340 -43 -469 -59 -439 -56
-721 -77 -1203 -92 -683 -20 -1466 7 -2037 71 -164 18 -818 106 -868 116 -45
9 -47 38 -22 257 13 121 25 290 28 421 4 206 6 221 25 236 19 16 21 32 28 266
12 393 17 2187 9 2989 -9 864 -13 934 -56 880 -16 -20 -16 -19 -10 5 14 54 18
460 7 725 -13 339 -52 741 -83 851 -28 101 -30 184 -4 213 30 33 282 124 488
177 56 14 125 36 153 50 32 15 110 34 206 50 85 14 159 30 164 34 6 5 60 18
120 29 61 11 160 31 220 45 171 39 529 78 810 89 203 8 686 6 835 -3z m-3777
-3002 c50 -33 149 -94 221 -135 183 -104 224 -133 236 -167 21 -60 3 -146 -30
-146 -42 0 -152 46 -452 189 l-108 51 0 97 c0 124 8 173 28 173 8 0 55 -28
105 -62z m6679 17 c11 -36 4 -139 -13 -195 -14 -48 -20 -52 -224 -153 -291
-144 -302 -148 -323 -102 -13 28 -15 159 -4 188 4 9 34 30 67 46 33 15 121 64
195 108 255 152 286 163 302 108z m-2 -439 c0 -69 -4 -135 -9 -148 -7 -20 -39
-33 -217 -91 -262 -84 -292 -91 -321 -71 -21 13 -23 23 -23 90 0 67 3 78 25
100 14 14 49 36 78 49 280 127 435 194 450 195 15 0 17 -12 17 -124z m-6733
98 c109 -37 469 -208 496 -235 25 -27 27 -35 27 -114 l0 -84 -37 5 c-196 25
-528 141 -548 191 -11 28 -18 177 -11 217 8 41 9 42 73 20z m6757 -1084 c-3
-355 -7 -647 -9 -650 -1 -3 -6 -487 -10 -1077 -4 -590 -11 -1107 -15 -1150 -9
-99 -12 476 -10 1872 1 1064 11 1723 27 1747 19 31 23 -136 17 -742z m-6811
-1035 c3 -885 2 -1682 -2 -1770 l-6 -160 -8 250 c-9 313 -16 2966 -9 3250 13
485 21 -16 25 -1570z m196 1715 c80 -37 106 -43 307 -75 45 -8 72 -43 85 -111
14 -70 6 -1272 -11 -1639 -25 -579 -44 -689 -167 -965 -30 -69 -89 -204 -130
-300 -41 -96 -102 -231 -135 -300 -52 -108 -61 -122 -71 -105 -16 29 -23 573
-25 1825 -1 1160 7 1670 28 1695 17 21 22 20 119 -25z m6483 -10 c37 -76 39
-205 36 -1850 -2 -1155 -6 -1600 -14 -1614 -10 -17 -15 -12 -49 48 -71 127
-261 553 -369 828 l-46 117 -15 283 c-26 510 -37 985 -33 1513 3 480 4 523 22
563 13 31 25 43 45 47 90 17 216 51 276 76 92 37 125 35 147 -11z m-7090
-2947 c-3 -114 2 -206 21 -398 45 -433 46 -475 8 -475 -10 0 -33 7 -51 16 -26
13 -34 14 -40 4 -5 -7 -6 -19 -3 -27 5 -13 16 -17 85 -28 21 -3 40 -9 42 -14
3 -4 14 -147 26 -317 11 -170 23 -327 27 -349 7 -40 7 -40 13 -10 4 17 4 163
2 325 l-4 295 24 35 c38 56 155 126 176 106 3 -4 10 -82 14 -174 8 -187 19
-396 48 -937 11 -203 31 -597 45 -875 34 -695 52 -994 76 -1280 11 -135 19
-294 17 -355 -3 -128 -4 -128 -94 -74 -87 53 -90 61 -124 350 -17 140 -44 358
-60 484 -49 381 -65 668 -81 1365 -5 250 -13 475 -18 500 -12 66 -13 -674 -1
-970 10 -242 1 -473 -19 -493 -12 -12 -55 48 -80 111 -35 88 -49 212 -86 757
-48 705 -61 1207 -47 1900 12 551 17 611 57 655 10 11 21 20 25 20 4 0 5 -66
2 -147z m7654 -69 c3 -37 4 -207 2 -378 -4 -252 -8 -320 -22 -356 -20 -58 -21
-55 12 -85 l27 -25 1 -403 c3 -975 -49 -1734 -131 -1908 -14 -30 -25 -62 -25
-71 0 -19 25 -25 35 -8 3 6 13 10 22 10 24 0 10 -75 -32 -178 -39 -95 -62
-129 -79 -112 -8 8 -11 275 -11 883 1 534 -2 812 -7 717 -4 -85 -15 -299 -23
-475 -30 -628 -75 -1223 -120 -1612 -14 -117 -25 -239 -25 -270 -1 -81 -26
-130 -96 -188 -69 -56 -97 -70 -120 -61 -15 6 -16 17 -11 89 19 250 63 984
107 1817 89 1671 97 1803 115 1827 11 14 18 13 83 -17 109 -50 106 -45 112
-238 3 -110 9 -167 16 -169 19 -6 25 26 34 175 4 81 13 149 19 155 7 7 11 73
11 196 0 141 5 209 20 290 11 58 27 176 35 261 9 85 18 165 22 177 10 41 21
24 29 -43z m-6064 -640 c417 -56 549 -72 768 -94 851 -83 1831 -91 2670 -20
338 28 542 54 1050 129 156 24 230 26 252 9 26 -22 37 -65 73 -298 20 -124 60
-369 90 -545 30 -176 68 -414 85 -530 17 -115 40 -247 51 -293 22 -95 28 -372
8 -414 -23 -53 -155 -113 -464 -212 -596 -192 -625 -199 -915 -235 -641 -79
-1411 -110 -1945 -77 -696 42 -1092 84 -1355 142 -122 28 -530 160 -690 224
-191 77 -355 156 -353 171 1 8 21 142 43 299 40 283 63 428 120 775 16 99 50
308 75 465 55 342 83 498 96 522 13 25 37 24 341 -18z m-1132 -542 c0 -76 23
-232 59 -407 44 -213 157 -627 193 -708 17 -40 59 -145 94 -233 l62 -162 6
-633 c3 -349 9 -777 12 -952 4 -242 3 -321 -6 -332 -29 -35 -180 -1 -241 54
-34 30 -29 -20 -59 576 -11 215 -29 530 -40 700 -78 1213 -92 1483 -97 1814
-4 263 -3 352 6 347 6 -4 11 -32 11 -64z m6720 -82 c0 -63 -7 -223 -15 -355
-26 -416 -54 -897 -75 -1295 -21 -403 -43 -762 -60 -990 -6 -74 -14 -232 -19
-350 -11 -291 -19 -306 -173 -355 -102 -32 -116 -32 -124 2 -8 29 -1 475 17
1098 5 209 9 477 7 595 l-3 215 58 148 c177 453 301 911 332 1227 6 66 22 163
31 190 13 37 24 -22 24 -130z m-6003 -1608 c97 -46 203 -86 308 -117 88 -26
238 -71 333 -101 268 -83 340 -92 1247 -160 634 -47 937 -47 1580 0 711 52
847 75 1279 211 115 36 245 75 289 86 44 11 149 52 234 90 167 75 202 82 214
39 18 -66 3 -1439 -17 -1593 -5 -36 -15 -60 -33 -78 -52 -52 -355 -134 -991
-269 -191 -41 -283 -54 -640 -95 -173 -19 -342 -39 -374 -45 -131 -21 -509
-32 -974 -27 -463 4 -483 5 -702 35 -124 17 -362 47 -530 67 -168 19 -330 40
-360 46 -191 36 -735 168 -825 199 -33 12 -101 35 -151 52 l-92 32 -6 50 c-3
28 -11 148 -17 266 -12 247 -9 1358 5 1379 14 22 65 7 223 -67z m-756 -1648
c102 -68 162 -94 384 -161 45 -14 65 -26 81 -50 20 -30 46 -144 59 -258 3 -27
20 -94 37 -148 38 -114 35 -120 -47 -111 -194 22 -376 65 -500 117 -94 40 -88
27 -105 247 -15 192 -11 377 10 390 22 14 23 14 81 -26z m6846 -14 c19 -40 33
-217 24 -286 -12 -79 -31 -115 -97 -182 -61 -60 -186 -125 -363 -186 -105 -37
-231 -70 -238 -62 -2 2 7 44 21 92 15 49 33 148 41 219 20 169 39 209 115 247
30 15 106 42 168 60 78 22 139 47 195 80 90 52 116 56 134 18z m-6092 -85
c179 -54 565 -152 727 -185 191 -39 361 -63 738 -105 453 -50 527 -54 1010
-61 507 -7 941 6 1141 35 74 11 202 27 284 36 231 25 385 51 705 121 493 108
561 124 679 159 128 39 141 41 141 21 0 -24 -39 -44 -153 -82 -398 -128 -1334
-300 -1882 -346 -214 -17 -1187 -18 -1413 0 -253 19 -861 89 -1022 117 -520
91 -1140 264 -1140 318 0 22 9 26 38 17 15 -5 81 -25 147 -45z m-47 -119 c712
-209 1407 -323 2240 -367 561 -30 1452 20 2007 112 222 36 837 179 1056 244
120 36 184 44 191 23 8 -24 -5 -57 -28 -73 -69 -45 -302 -118 -539 -170 -88
-19 -230 -50 -315 -70 -203 -46 -462 -88 -740 -120 -124 -14 -277 -33 -340
-43 -99 -14 -204 -17 -765 -16 -708 0 -778 3 -1265 59 -452 52 -548 68 -875
140 -331 73 -350 77 -552 142 -162 51 -206 75 -211 117 -4 28 3 56 13 56 3 0
58 -15 123 -34z m5476 -183 c-11 -80 -53 -234 -70 -260 -8 -14 -35 -33 -58
-44 -99 -44 -477 -140 -839 -214 -170 -34 -793 -113 -1082 -135 -214 -17
-1206 -25 -1426 -11 -563 36 -1409 173 -1769 287 -246 78 -280 93 -304 133
-23 40 -66 200 -66 247 0 42 13 43 115 14 313 -91 866 -223 1000 -240 50 -6
185 -24 300 -40 417 -59 637 -77 1082 -90 621 -17 1269 16 1718 90 66 11 161
24 210 29 50 5 173 28 275 51 214 47 747 181 835 210 87 28 87 28 79 -27z
m-5283 -418 c344 -105 669 -166 1346 -249 401 -50 591 -59 1163 -60 449 0 531
2 740 22 668 64 981 114 1505 239 389 92 380 91 406 68 19 -18 35 -20 128 -18
85 1 101 -1 81 -10 -154 -68 -212 -90 -313 -121 -116 -35 -178 -51 -552 -140
-200 -48 -532 -108 -700 -126 -230 -26 -2125 -41 -2490 -20 -253 14 -575 72
-1025 185 -475 118 -791 228 -757 261 3 3 30 -2 59 -12 29 -9 81 -18 115 -18
52 -1 66 3 85 22 12 12 31 22 42 22 11 0 86 -20 167 -45z"/>
<path d="M1230 17325 c-20 -52 -30 -257 -41 -807 -13 -651 -10 -1151 7 -1168
21 -21 36 19 45 117 15 163 24 1883 10 1883 -6 0 -16 -11 -21 -25z"/>
<path d="M8057 17328 c-16 -114 12 -1771 31 -1927 7 -51 31 -86 48 -69 21 21
22 149 9 748 -22 978 -37 1246 -72 1281 -8 8 -13 -3 -16 -33z"/>
<path d="M4527 6873 c-4 -3 -7 -70 -7 -147 1 -132 2 -144 25 -181 37 -59 35
-134 -6 -212 -24 -47 -30 -68 -24 -92 8 -40 25 -44 160 -39 92 3 109 6 121 22
20 28 17 63 -6 102 -39 63 -50 244 -15 244 22 0 28 56 20 186 l-7 124 -127 0
c-70 0 -131 -3 -134 -7z"/>
<path d="M3758 1314 c-15 -15 -8 -44 15 -58 41 -27 391 -69 713 -86 449 -24
1094 45 1094 116 0 27 -44 32 -171 22 -125 -10 -1266 -4 -1519 8 -69 3 -128 3
-132 -2z"/>
</g>
</svg>
