<?xml version="1.0" standalone="no"?>
<!DOCTYPE svg PUBLIC "-//W3C//DTD SVG 20010904//EN"
 "http://www.w3.org/TR/2001/REC-SVG-20010904/DTD/svg10.dtd">
<svg version="1.0" xmlns="http://www.w3.org/2000/svg"
 width="1244.000000pt" height="415.000000pt" viewBox="0 0 1244.000000 415.000000"
 preserveAspectRatio="xMidYMid meet">
<metadata>
Created by potrace 1.15, written by Peter Selinger 2001-2017
</metadata>
<g transform="translate(0.000000,415.000000) scale(0.100000,-0.100000)"
fill="#000000" stroke="none">
<path d="M6218 3945 c-7 -7 -119 -19 -328 -35 -431 -33 -649 -70 -895 -152
-209 -69 -745 -379 -1393 -804 -95 -63 -175 -114 -177 -114 -2 0 -17 13 -33
30 -40 39 -66 38 -109 -5 -30 -30 -42 -35 -82 -35 -26 0 -51 -4 -57 -9 -5 -6
-65 -15 -134 -20 -176 -15 -224 -20 -320 -30 -69 -7 -86 -7 -93 5 -11 20 -47
17 -71 -5 -17 -16 -51 -22 -196 -35 -96 -9 -211 -21 -255 -26 -44 -6 -174 -22
-290 -36 -531 -63 -998 -167 -1258 -280 -111 -49 -136 -86 -192 -279 -35 -123
-83 -313 -94 -379 -6 -33 -16 -63 -23 -67 -16 -10 -22 -112 -9 -151 7 -18 18
-121 27 -228 8 -107 21 -228 29 -269 8 -40 15 -74 15 -76 0 -10 90 -108 134
-146 48 -41 62 -47 127 -57 41 -7 179 -13 307 -14 l232 -3 0 23 c0 21 5 22 70
24 39 0 75 1 81 2 7 1 16 -6 20 -14 102 -185 196 -296 315 -377 109 -75 162
-98 323 -148 69 -21 258 -29 357 -15 243 33 470 168 618 366 34 44 66 89 72
100 10 17 25 19 143 22 l131 4 0 -33 0 -32 1907 6 c1048 4 2308 7 2799 7 l893
0 3 28 3 27 126 3 127 3 30 -53 c79 -138 228 -278 377 -353 81 -41 118 -55
235 -86 58 -15 253 -21 331 -10 88 12 212 51 293 92 215 109 389 308 465 531
l18 53 81 3 c71 2 82 1 82 -14 0 -13 6 -15 28 -10 39 10 727 36 922 35 l165
-1 29 34 c15 18 38 54 51 80 12 26 41 66 64 90 46 46 88 120 104 183 11 40 15
310 8 505 -4 134 -21 268 -35 278 -16 12 -90 32 -119 32 -24 0 -27 5 -47 98
-54 237 -81 330 -136 460 -69 164 -178 333 -228 352 -25 9 -56 13 -291 36
-201 19 -419 33 -554 33 -104 1 -104 1 -185 45 -126 69 -688 348 -816 406 -63
28 -129 58 -146 65 -158 72 -461 169 -669 214 -312 68 -297 66 -855 111 -159
13 -2040 27 -2052 15z m2027 -54 c66 -5 192 -15 280 -21 171 -12 216 -18 420
-57 157 -29 140 -25 294 -63 69 -18 130 -35 135 -40 11 -11 -72 -53 -93 -47
-9 3 -59 21 -112 41 -181 66 -422 120 -613 137 -133 12 -161 14 -476 28 -135
6 -337 16 -450 21 -261 13 -544 13 -830 0 -1170 -51 -1293 -64 -1544 -162 -76
-29 -81 -30 -175 -22 l-96 9 130 37 c144 40 305 71 465 87 58 6 116 13 130 16
14 2 104 9 200 14 96 6 249 16 340 21 91 6 212 12 270 14 232 7 1613 -3 1725
-13z m-400 -22 c691 -30 841 -45 1090 -107 184 -47 316 -96 655 -244 291 -127
964 -470 945 -481 -29 -16 -195 -25 -672 -38 l-472 -12 -27 34 c-14 19 -115
122 -224 230 -278 276 -486 441 -590 469 -48 12 -188 28 -350 39 -447 31 -602
35 -1285 35 -763 1 -965 -8 -1281 -54 -295 -43 -378 -81 -779 -352 -104 -71
-219 -149 -255 -173 -36 -24 -80 -56 -97 -70 -18 -15 -128 -98 -245 -186
l-212 -159 -64 0 -64 0 49 38 c123 97 350 270 409 312 12 8 70 50 130 93 220
159 638 423 738 467 41 19 195 66 245 75 181 35 512 61 1056 84 272 12 1040
12 1300 0z m-799 -102 c-3 -12 -6 -27 -6 -34 0 -8 -114 -13 -442 -16 -765 -8
-1058 -39 -1274 -137 -118 -53 -356 -200 -519 -320 -35 -26 -65 -39 -100 -43
-27 -4 -61 -9 -75 -13 -60 -16 424 310 600 404 69 37 193 82 265 96 17 4 41 9
55 12 179 38 710 70 1189 72 l313 2 -6 -23z m719 3 c476 -16 739 -42 827 -82
68 -31 172 -108 303 -223 119 -104 465 -450 465 -465 0 -5 -19 -10 -43 -10
-41 0 -47 4 -147 106 -148 148 -467 447 -516 483 -84 60 -152 85 -264 95 -240
23 -794 46 -1082 46 -154 0 -258 4 -258 9 0 5 5 22 10 37 l11 27 207 -6 c114
-4 333 -11 487 -17z m-905 -70 c0 -5 -24 -94 -54 -197 -30 -104 -77 -278 -105
-388 -29 -109 -53 -200 -54 -201 -1 0 -153 -6 -337 -12 -329 -12 -1030 -43
-1365 -62 -93 -5 -197 -9 -230 -9 l-60 0 45 24 c25 13 53 24 63 25 9 0 26 15
37 33 16 26 20 50 20 133 0 91 -2 105 -25 137 l-24 37 97 68 c167 116 252 169
382 239 190 101 262 119 610 153 244 24 1000 39 1000 20z m170 1 c0 -8 -23
-121 -35 -171 -18 -76 -42 -190 -82 -382 l-46 -226 -96 -4 c-53 -2 -98 -3 -99
-2 -11 7 127 539 203 782 5 14 155 17 155 3z m156 -53 c-4 -35 -18 -126 -31
-203 -13 -77 -31 -192 -40 -255 -32 -225 -37 -255 -40 -258 -5 -5 -184 -6
-189 -1 -2 2 5 45 15 94 10 50 28 137 39 195 11 58 26 132 34 165 8 33 26 114
41 180 14 66 28 126 30 133 3 8 28 12 76 12 l72 0 -7 -62z m459 52 c363 -9
501 -16 748 -40 158 -16 222 -53 449 -264 62 -57 94 -94 91 -105 -2 -9 -10
-80 -17 -159 -7 -78 -15 -144 -17 -146 -2 -2 -202 -9 -444 -15 -465 -12 -932
-26 -1204 -36 l-164 -6 7 33 c4 18 15 96 26 173 11 77 26 181 35 230 8 50 22
142 30 205 20 142 19 140 47 140 13 0 199 -4 413 -10z m1846 -24 c230 -74 732
-306 1167 -538 l117 -63 -95 -15 -95 -16 -435 217 c-377 188 -674 329 -693
329 -3 0 -36 14 -74 31 l-68 30 40 25 c49 29 46 29 136 0z m-4448 -65 c-313
-189 -620 -402 -973 -675 -96 -74 -179 -135 -185 -136 -15 0 11 22 165 139
386 295 685 501 1003 691 21 12 36 25 33 27 -6 7 -302 -174 -451 -276 -226
-153 -511 -363 -731 -539 l-53 -42 -198 2 -198 3 175 116 c96 63 210 137 253
165 43 27 99 63 125 79 223 142 511 312 722 426 l155 84 102 0 c57 0 104 -4
106 -9 2 -5 9 -6 16 -2 11 7 11 10 0 17 -9 6 -1 9 25 9 38 0 35 -3 -91 -79z
m4060 -469 l149 -149 -78 -6 c-89 -8 -248 -9 -255 -2 -3 2 -1 37 3 77 4 40 10
108 14 151 4 42 10 77 13 77 3 0 73 -67 154 -148z m-4340 59 c34 -13 51 -89
44 -195 -4 -67 -9 -84 -27 -98 -27 -22 -49 -22 -123 -3 -147 38 -219 144 -152
224 28 32 94 59 179 71 28 4 52 8 53 9 1 0 13 -3 26 -8z m-293 -150 c0 -38 -3
-42 -113 -129 -160 -126 -156 -124 -224 -120 l-58 3 189 143 c105 78 194 142
198 142 4 0 8 -18 8 -39z m6700 -12 c209 -11 491 -37 499 -45 3 -4 -75 -4
-174 0 -99 3 -364 9 -590 13 -260 4 -394 10 -365 15 25 4 77 14 115 22 73 14
190 13 515 -5z m-6667 -64 c17 -24 17 -25 0 -25 -25 0 -123 -47 -123 -59 0
-22 62 -61 98 -61 26 -1 33 -3 22 -9 -18 -11 -272 -19 -262 -9 18 18 238 188
242 188 3 -1 13 -12 23 -25z m6756 10 c228 -3 416 -7 418 -9 2 -2 -5 -24 -16
-49 -11 -25 -29 -83 -42 -129 -12 -45 -24 -86 -28 -90 -3 -4 -286 -8 -627 -10
l-621 -3 -7 105 c-5 82 -10 108 -24 118 -21 16 -394 15 -429 -1 -31 -14 -36
-36 -28 -137 l7 -88 -194 -4 c-106 -3 -194 -4 -195 -3 -1 0 -4 21 -7 46 -7 67
-24 139 -47 192 -11 27 -19 51 -17 53 7 6 861 19 1158 17 157 -1 471 -4 699
-8z m-1979 -19 c0 -8 -8 -17 -17 -20 -15 -4 -227 -10 -710 -21 -632 -13 -1120
-27 -1261 -35 -255 -15 -422 -13 -422 3 0 11 53 16 248 25 136 6 254 11 262
10 18 0 641 18 1105 32 187 6 417 12 510 13 94 2 196 4 228 5 44 1 57 -1 57
-12z m128 -54 c24 -53 52 -177 52 -228 0 -2 -49 -4 -109 -4 -106 0 -110 1
-113 22 -4 28 -32 35 -144 37 -51 1 -93 7 -110 16 -46 24 -171 20 -214 -7 -19
-12 -60 -25 -90 -29 -37 -5 -59 -14 -70 -28 -15 -20 -28 -21 -515 -31 -275 -5
-594 -14 -710 -19 -330 -16 -594 -23 -604 -17 -11 7 26 130 59 197 l22 45 407
13 c223 6 667 18 986 26 1087 27 1045 25 1045 60 0 11 11 15 39 15 38 0 39 -1
69 -68z m2326 -53 c3 -62 11 -119 17 -128 9 -14 10 -14 5 2 -3 10 -9 68 -12
129 -5 82 -4 109 4 104 15 -9 133 -188 169 -256 52 -98 132 -323 168 -470 9
-36 19 -73 22 -83 4 -16 -1 -18 -52 -15 l-57 3 -18 45 c-11 25 -56 135 -100
245 -99 242 -110 257 -205 263 -74 5 -69 -9 -38 116 18 73 59 156 77 156 10 0
15 -29 20 -111z m-7076 31 l53 -17 -42 -18 c-62 -29 -196 -26 -238 5 -18 12
-30 27 -28 33 2 6 30 20 63 33 l59 22 40 -21 c22 -11 64 -28 93 -37z m5645 18
c13 -10 17 -32 18 -98 1 -47 1 -93 0 -102 -1 -17 -19 -18 -226 -18 l-226 0 3
108 3 107 105 6 c206 10 306 10 323 -3z m-3443 -5 c-1 -26 -34 -30 -380 -42
-362 -12 -578 -21 -1360 -61 -755 -38 -906 -44 -925 -36 -44 17 13 28 191 36
104 5 232 12 284 14 52 3 228 12 390 20 162 9 448 22 635 30 933 40 921 40
1088 44 42 1 77 -1 77 -5z m-29 -65 c-5 -13 -18 -43 -29 -68 -10 -25 -25 -69
-31 -97 l-13 -53 -62 0 c-50 0 -63 4 -74 20 -11 18 -23 20 -111 20 -77 0 -108
4 -142 20 -63 28 -143 26 -205 -5 -27 -14 -59 -25 -71 -25 -32 0 -76 -19 -93
-40 -16 -19 -62 -22 -820 -46 -258 -9 -1198 -55 -1320 -65 -8 -1 -23 -1 -34 0
-18 1 -18 2 -1 29 34 52 97 131 141 175 24 25 44 48 44 53 0 20 -125 -117
-172 -188 -36 -56 -57 -78 -72 -78 -26 -1 -384 -25 -656 -44 -113 -8 -226 -16
-252 -17 -27 -2 -48 -6 -48 -10 0 -15 17 -18 51 -9 19 5 167 19 329 30 162 11
362 25 444 31 81 5 150 9 151 7 2 -2 -1 -43 -6 -93 -15 -141 -28 -380 -29
-492 l0 -103 -52 0 c-29 0 -104 -3 -166 -7 l-114 -6 6 -30 c7 -36 23 -57 43
-57 8 0 22 -8 31 -19 30 -34 74 -41 121 -20 22 10 41 23 41 29 0 5 20 10 45
10 l45 0 0 -97 c1 -168 32 -440 67 -586 9 -37 14 -70 11 -73 -3 -2 -138 -7
-301 -11 l-295 -6 -6 34 c-2 19 -9 88 -15 154 -20 230 -65 407 -145 572 -62
127 -103 189 -180 271 -205 217 -493 311 -869 283 -208 -16 -378 -66 -521
-155 -61 -37 -82 -45 -145 -51 -91 -9 -91 0 0 68 134 102 306 170 519 207 118
21 412 21 530 1 245 -43 422 -132 576 -292 137 -143 241 -338 284 -532 8 -32
17 -60 22 -63 13 -8 10 6 -20 107 -65 214 -152 371 -280 501 -153 158 -337
250 -586 294 -17 3 -109 8 -204 11 -380 11 -677 -74 -892 -257 l-55 -47 -102
-6 c-57 -3 -103 -4 -103 0 0 19 116 145 184 200 45 36 82 69 84 73 3 9 -15 6
-153 -22 -177 -35 -263 -92 -322 -213 l-27 -55 -88 0 c-48 0 -88 4 -88 8 0 21
52 157 77 203 51 95 159 169 315 217 119 37 453 103 713 142 77 11 169 25 205
30 36 6 146 17 245 26 99 8 254 22 345 30 166 14 497 41 860 70 107 8 213 17
235 19 182 16 360 26 378 21 11 -3 26 -1 31 3 6 5 39 11 74 15 52 6 62 4 62
-8 0 -8 8 -19 18 -24 19 -10 23 -10 457 13 522 27 1086 54 1370 65 149 6 329
15 400 19 72 4 196 9 277 10 l148 1 -9 -22z m-3438 -44 c3 -3 131 -5 283 -4
153 0 276 -2 273 -5 -3 -3 -97 -12 -210 -20 -112 -8 -231 -17 -264 -20 -33 -3
-143 -12 -245 -20 -724 -57 -1270 -106 -1385 -125 -33 -5 -89 -14 -125 -19
-285 -43 -607 -109 -732 -151 -150 -50 -227 -104 -283 -195 l-22 -38 -7 27
c-5 22 -12 26 -41 26 -19 0 -35 4 -35 9 0 5 18 25 41 46 126 114 569 232 1189
316 80 11 171 22 203 26 32 3 54 9 49 12 -6 3 20 6 56 7 51 0 366 26 552 45 8
1 -3 5 -25 10 -28 5 -19 6 30 3 39 -3 129 0 200 6 72 5 162 13 200 16 82 7
111 23 33 18 l-53 -3 45 10 c79 18 262 34 273 23z m5707 -89 l0 -25 -182 0
c-169 0 -214 -4 -275 -24 -19 -6 -23 -4 -23 13 0 15 10 23 43 32 46 13 201 25
345 27 92 2 92 2 92 -23z m2505 -32 c24 -63 195 -532 195 -537 0 -3 -10 -5
-22 -5 -13 1 -199 -4 -415 -11 l-392 -13 -28 34 c-227 280 -560 419 -1003 420
-137 1 -294 -15 -393 -40 l-72 -18 -3 80 c-2 44 0 82 3 85 3 4 91 8 195 10
l190 4 0 -28 c0 -15 7 -36 17 -46 15 -16 35 -18 220 -18 190 0 204 1 223 20
11 11 20 31 20 45 0 23 4 24 63 28 34 2 317 4 628 5 532 2 567 1 574 -15z
m132 0 c41 -19 38 -14 163 -321 45 -111 80 -205 77 -208 -3 -3 -40 -6 -82 -7
l-77 -2 -89 240 c-49 132 -96 257 -104 278 l-15 37 46 0 c25 0 62 -8 81 -17z
m-1416 -3 c8 -65 -8 -70 -233 -70 -156 0 -189 3 -202 16 -16 16 -21 46 -9 57
11 11 443 8 444 -3z m-863 -87 l-3 -86 -55 -19 c-212 -71 -429 -235 -562 -424
-84 -120 -178 -319 -178 -377 0 -12 12 12 26 53 57 168 145 311 273 444 93 96
151 142 251 200 55 33 218 106 234 106 3 0 6 -21 6 -47 -1 -89 -48 -156 -144
-205 -78 -39 -191 -126 -267 -205 -149 -155 -247 -343 -311 -598 -25 -100 -58
-323 -58 -391 l0 -52 -472 -6 c-260 -3 -687 -8 -949 -12 l-476 -6 -6 79 c-4
43 -10 225 -13 404 l-7 326 83 7 c70 6 402 15 1475 42 110 2 210 7 222 9 16 4
24 15 29 41 3 19 5 37 3 39 -4 3 -228 -2 -909 -20 -326 -9 -895 -22 -897 -20
-4 2 14 736 19 740 5 5 887 34 1407 45 396 9 415 9 427 -9 9 -12 31 -20 67
-25 30 -3 74 -17 98 -31 60 -34 146 -34 215 -1 32 16 76 26 127 30 91 8 127
19 127 41 0 12 18 15 110 15 l111 0 -3 -87z m-398 62 c-15 -8 -29 -10 -34 -4
-6 5 -24 8 -40 8 -31 -2 -31 -2 -3 -6 15 -2 27 -11 27 -18 0 -44 -162 -66
-227 -32 -39 20 -42 35 -10 41 42 9 192 23 252 24 56 1 58 0 35 -13z m-2570
-19 l0 -24 -217 -4 c-154 -2 -225 -7 -240 -16 -21 -12 -23 -11 -23 12 0 20 6
26 33 31 99 17 177 23 305 24 l142 1 0 -24z m-4791 -10 c-2 -2 -26 -7 -54 -11
-164 -21 -554 -103 -690 -144 -207 -62 -313 -118 -362 -191 l-23 -33 0 65 0
66 88 30 c216 76 436 129 802 192 149 26 250 37 239 26z m5053 -206 c-1 -107
-5 -274 -8 -371 l-6 -177 -232 -5 c-127 -3 -521 -13 -876 -22 -355 -9 -715
-18 -800 -20 -85 -2 -333 -8 -550 -14 -217 -6 -424 -11 -459 -11 l-64 0 6 158
c6 165 23 418 32 488 l6 42 77 7 c87 8 105 9 397 24 116 6 282 16 370 21 88 6
367 17 620 26 253 8 522 18 598 21 118 5 137 4 137 -9 0 -17 40 -28 96 -28 19
0 34 -4 34 -9 0 -10 45 -30 96 -41 46 -11 126 4 170 31 20 12 50 19 82 19 81
0 152 18 152 39 0 28 10 32 70 29 l55 -3 -3 -195z m3513 110 c258 -54 433
-146 600 -314 l90 -91 -55 -7 c-30 -3 -83 -6 -117 -7 -56 -1 -67 3 -120 38
-204 135 -459 201 -778 201 -194 0 -358 -26 -490 -76 -8 -4 -2 8 15 26 29 31
51 89 52 134 0 66 6 70 163 100 123 24 136 24 345 21 150 -3 218 -8 295 -25z
m-9703 -227 c3 -57 -2 -82 -29 -151 -30 -80 -48 -147 -59 -222 -3 -25 -17 -46
-49 -75 -32 -29 -46 -51 -51 -78 -7 -40 -9 -42 -61 -51 -41 -7 -41 -2 -7 129
14 55 28 110 30 122 14 73 90 293 110 321 22 28 84 70 106 72 4 0 8 -30 10
-67z m9578 17 c156 -23 303 -66 410 -120 85 -44 143 -84 133 -93 -3 -4 -36 -7
-72 -7 -56 0 -77 6 -146 39 -101 50 -228 85 -375 105 -350 48 -670 -29 -892
-217 -63 -53 -155 -166 -207 -255 -39 -67 -95 -200 -124 -297 -24 -78 -57
-270 -65 -380 l-7 -100 -57 -3 c-67 -3 -63 -17 -48 143 19 205 86 459 160 605
79 158 198 302 330 402 126 95 311 164 495 184 28 3 52 8 54 10 13 12 292 1
411 -16z m-8978 -137 c-60 -60 -118 -120 -128 -135 -18 -25 -24 -27 -115 -30
l-97 -3 24 48 c34 66 89 124 146 153 44 22 170 57 243 67 17 2 31 5 33 6 1 0
-47 -47 -106 -106z m-492 39 c0 -52 -104 -362 -121 -362 -5 0 -9 7 -9 15 0 10
-10 15 -30 15 -30 0 -31 1 -25 38 13 74 35 152 65 231 l31 81 45 0 c36 0 44
-3 44 -18z m1729 -13 c159 -33 265 -82 382 -175 182 -145 306 -356 373 -634
37 -155 64 -389 65 -562 l1 -77 -135 -3 c-117 -3 -134 -1 -128 12 3 8 22 60
42 115 34 99 35 101 35 275 1 188 -7 229 -67 378 -79 192 -266 383 -462 472
-111 51 -155 63 -290 81 -258 34 -556 -67 -753 -255 -185 -176 -293 -453 -279
-710 7 -116 12 -147 38 -231 10 -33 19 -63 19 -66 0 -4 -40 -7 -90 -8 l-90 -2
0 213 c1 349 30 504 134 705 176 339 535 517 1006 496 58 -2 147 -13 199 -24z
m7831 -2 c193 -47 329 -118 453 -236 85 -81 151 -174 198 -276 76 -167 98
-284 106 -543 l6 -202 -90 0 -91 0 14 73 c35 182 -8 427 -104 597 -98 173
-233 298 -413 384 -353 169 -756 107 -1041 -162 -104 -98 -185 -219 -228 -337
-51 -141 -55 -164 -55 -340 1 -175 11 -235 59 -349 9 -21 16 -40 16 -42 0 -2
-59 -4 -132 -4 l-131 0 7 167 c4 93 11 193 16 223 5 30 14 91 21 135 35 248
157 509 313 673 96 101 266 197 419 237 130 33 131 33 352 31 176 -3 213 -6
305 -29z m1776 -107 c9 -22 26 -46 38 -52 11 -6 71 -14 133 -16 123 -5 116 -1
127 -77 10 -68 11 -68 -198 -60 -113 5 -192 12 -202 19 -8 7 -30 57 -48 111
l-33 100 56 6 c115 12 110 13 127 -31z m-166 -71 c18 -56 40 -109 50 -119 15
-15 46 -19 213 -25 l195 -7 6 -32 c20 -120 13 -533 -10 -556 -5 -5 -94 -16
-199 -25 -104 -8 -264 -22 -355 -31 -91 -8 -187 -17 -215 -19 -279 -24 -400
-34 -401 -32 -1 1 -9 60 -18 130 -22 168 -48 276 -96 394 -55 133 -112 225
-199 316 l-74 77 115 0 115 0 26 -38 c53 -81 122 -244 142 -336 3 -15 8 -26
11 -23 17 17 -59 222 -121 328 -19 33 -35 62 -35 64 0 12 357 29 707 33 l111
2 32 -101z m-1073 19 c149 -141 241 -317 299 -568 13 -58 27 -152 31 -209 l6
-103 76 5 c92 7 487 41 701 62 338 31 402 36 406 33 2 -2 -12 -29 -31 -59 -42
-68 -105 -120 -159 -131 -134 -28 -533 -92 -701 -114 -22 -2 -47 -7 -56 -10
-9 -2 -83 -9 -165 -13 -130 -8 -150 -7 -160 7 -7 10 -13 90 -17 221 -6 217
-18 296 -64 431 -64 187 -168 335 -312 444 l-55 41 60 6 c32 3 65 6 72 7 7 1
38 -22 69 -50z m-8522 27 c169 -29 288 -79 412 -172 340 -255 461 -684 306
-1083 -15 -38 -33 -70 -40 -70 -7 0 -13 -4 -13 -9 0 -20 -96 -150 -153 -209
-65 -66 -202 -163 -265 -188 -20 -8 -46 -19 -57 -24 -146 -63 -374 -76 -549
-30 -247 65 -465 240 -576 461 -22 43 -44 79 -49 79 -14 0 -51 142 -61 239
-28 276 63 540 255 736 146 150 347 252 535 272 30 3 57 7 59 9 10 9 112 3
196 -11z m7862 -11 c265 -61 491 -237 615 -480 74 -145 100 -253 100 -419 0
-105 -10 -183 -26 -210 -7 -11 -23 -49 -35 -85 -182 -508 -738 -746 -1234
-526 -78 34 -200 122 -268 193 -57 59 -143 177 -154 213 -4 11 -11 20 -16 20
-16 0 -48 82 -75 188 -43 172 -29 371 38 542 92 237 299 440 541 530 154 58
355 71 514 34z m-8748 -81 c-107 -100 -196 -248 -250 -416 -45 -139 -63 -298
-64 -539 0 -115 -3 -208 -8 -208 -4 0 -5 -10 -2 -22 l6 -23 -233 5 c-219 5
-236 6 -276 28 -24 13 -50 21 -57 18 -14 -5 -119 85 -136 116 -9 16 -7 18 15
12 30 -7 33 6 15 69 -5 20 -15 81 -22 135 -12 95 -13 97 -40 100 -17 2 -27 10
-28 20 -1 9 -4 60 -8 113 l-6 97 205 4 c261 5 267 9 273 147 3 88 -3 91 -205
91 -171 0 -169 -1 -148 54 7 19 17 26 35 26 15 0 25 -6 25 -14 0 -7 7 -19 15
-26 27 -23 61 6 98 84 19 39 40 87 46 106 l11 35 90 2 c50 2 90 2 90 0 0 -1
-11 -36 -24 -77 -33 -100 -46 -160 -35 -160 5 0 9 7 9 16 0 9 14 61 31 116 35
115 40 119 155 117 l74 -1 -21 -29 c-36 -50 -97 -191 -118 -272 -28 -109 -55
-457 -46 -612 10 -181 13 -217 21 -224 4 -3 4 30 0 73 -19 216 -1 608 35 751
18 73 98 255 131 297 10 14 35 19 118 25 l104 6 -51 -65 c-128 -160 -201 -359
-223 -611 -11 -122 -11 -334 -1 -437 3 -36 6 52 7 195 0 206 4 279 18 350 37
189 87 318 171 443 68 103 90 120 155 125 30 2 65 4 77 5 18 2 13 -7 -28 -45z
m7183 -103 c-1 -13 -7 -27 -13 -31 -9 -5 -187 -11 -709 -24 -74 -2 -306 -8
-515 -14 -209 -6 -419 -11 -467 -11 l-88 0 0 29 c0 29 0 29 73 35 39 3 418 12
841 21 424 8 772 18 775 21 3 3 28 4 56 2 47 -3 50 -5 47 -28z m-1802 -49 l0
-28 -91 -7 c-50 -4 -452 -16 -893 -27 -440 -10 -1048 -26 -1351 -34 -302 -8
-571 -14 -597 -15 -46 0 -48 1 -48 29 0 26 4 30 38 35 20 4 330 13 687 22 358
9 733 18 835 21 210 5 1224 29 1343 32 l77 1 0 -29z m1 -198 c0 -188 7 -440
14 -565 l6 -98 -38 -1 c-21 -1 -153 -3 -293 -4 -140 -1 -773 -8 -1406 -15
-634 -7 -1158 -11 -1166 -7 -9 3 -20 31 -27 69 -7 34 -16 82 -22 104 -17 79
-49 399 -49 495 l0 96 263 6 c144 3 525 13 847 22 1007 28 1539 42 1708 43
l162 2 1 -147z m-6014 65 c8 -6 10 -15 6 -19 -11 -11 -501 -34 -511 -25 -15
16 31 36 69 30 49 -8 89 2 89 23 0 15 16 15 167 9 99 -4 172 -11 180 -18z m8
-70 c-14 -69 -7 -65 -118 -70 -56 -3 -103 -5 -105 -3 -1 1 1 23 4 48 l7 46 51
4 c28 2 77 4 109 5 l59 2 -7 -32z m-234 -36 l-2 -52 113 6 c110 6 113 6 95
-12 -16 -17 -38 -19 -238 -22 -149 -2 -225 0 -234 8 -7 6 -12 24 -11 40 1 17
-1 30 -6 30 -4 0 -8 11 -8 25 l0 24 123 3 c191 5 171 10 168 -50z m11638 -544
c-6 -13 -22 -38 -36 -55 l-24 -33 -135 0 c-106 0 -134 3 -134 13 0 28 38 46
145 66 204 38 199 38 184 9z m-3350 -174 c-2 -58 -6 -107 -11 -110 -4 -3 -8
-15 -8 -28 l0 -23 -2420 -7 c-1332 -4 -2424 -4 -2429 -2 -7 5 -40 102 -65 192
-6 21 -3 21 226 28 213 6 2117 29 3538 42 322 3 587 8 589 10 2 2 134 4 293 4
l289 0 -2 -106z m-4943 19 c3 -16 16 -62 30 -104 13 -42 24 -79 24 -83 0 -3
-146 -6 -324 -6 l-324 0 -11 75 c-6 42 -11 91 -11 110 l0 35 305 0 305 0 6
-27z"/>
<path d="M1912 2520 c-131 -19 -204 -37 -314 -75 -79 -28 -192 -84 -185 -91 3
-3 31 8 63 24 98 49 210 86 359 118 147 32 540 32 680 0 91 -21 154 -36 175
-42 16 -4 21 -3 15 3 -17 17 -134 43 -278 63 -172 24 -347 24 -515 0z"/>
<path d="M2000 1794 c-128 -25 -246 -90 -345 -189 -126 -126 -185 -268 -185
-445 1 -296 182 -540 465 -626 59 -18 251 -26 300 -13 79 21 116 34 160 56
201 101 327 278 355 498 29 228 -73 470 -251 597 -127 90 -209 118 -364 123
-60 2 -121 1 -135 -1z m241 -20 c232 -51 408 -216 481 -452 27 -89 27 -240 0
-332 -35 -117 -78 -188 -171 -280 -96 -96 -168 -138 -294 -169 -83 -21 -206
-21 -292 -2 -101 24 -212 87 -295 169 -199 197 -246 488 -118 735 132 256 413
391 689 331z"/>
<path d="M2080 1745 c-8 -10 -11 -32 -8 -64 4 -44 3 -50 -16 -55 -50 -13 -55
-9 -58 52 l-3 57 -35 -3 c-66 -4 -198 -79 -270 -152 -107 -109 -111 -134 -30
-159 22 -6 40 -14 40 -17 0 -12 -31 -64 -38 -64 -5 0 -30 7 -56 16 -52 18 -64
13 -68 -26 -3 -22 4 -27 54 -44 55 -20 56 -21 51 -51 -8 -40 -7 -40 -51 -26
-69 23 -77 16 -78 -69 -2 -87 24 -189 67 -270 30 -57 73 -110 89 -110 4 0 24
19 44 43 l35 42 28 -27 27 -28 -33 -47 c-25 -35 -31 -51 -24 -62 20 -32 49
-24 84 22 l34 44 31 -15 32 -15 -31 -44 c-25 -34 -29 -47 -21 -61 13 -20 158
-60 225 -61 59 -1 197 26 227 45 28 19 28 31 -4 77 -14 21 -24 40 -22 41 61
40 60 40 80 13 46 -63 54 -70 75 -63 35 11 34 34 -1 84 l-33 47 28 23 28 23
27 -41 c37 -56 58 -51 112 29 56 85 92 202 92 304 0 91 -6 97 -75 73 -49 -16
-51 -15 -57 34 -3 22 4 28 52 47 47 18 55 25 52 44 -4 38 -17 43 -68 25 -62
-21 -61 -21 -79 14 -15 29 -15 31 10 40 15 6 30 10 33 10 4 0 18 7 30 16 l22
15 -22 41 c-51 90 -225 218 -330 242 -38 9 -58 -15 -58 -70 0 -39 -3 -44 -22
-44 -38 0 -48 14 -56 76 -6 49 -10 59 -28 62 -11 2 -27 -4 -34 -13z m52 -51
c3 -27 7 -106 7 -175 1 -98 -2 -128 -12 -132 -8 -3 -18 -2 -24 1 -15 10 -23
338 -9 352 19 19 31 4 38 -46z m-144 -6 c3 -23 -1 -28 -25 -34 -72 -18 -141
-61 -217 -136 -80 -79 -95 -88 -114 -65 -14 16 2 42 67 110 54 57 120 100 199
133 69 29 86 27 90 -8z m387 -16 c51 -25 93 -57 153 -118 45 -46 82 -87 82
-93 0 -5 -13 -14 -30 -19 -27 -10 -31 -8 -49 21 -41 66 -142 143 -236 179 -44
16 -55 25 -55 43 0 12 3 25 6 28 11 10 53 -3 129 -41z m-385 -161 c0 -109 -3
-132 -18 -151 l-18 -23 -80 28 c-139 48 -184 66 -184 75 0 4 27 35 60 69 60
61 174 130 218 131 22 0 22 -2 22 -129z m348 97 c66 -33 192 -145 192 -171 0
-21 -248 -99 -272 -86 -16 9 -18 24 -18 149 0 162 -4 158 98 108z m-258 -113
c0 -124 0 -125 23 -125 41 0 47 17 47 138 0 100 2 113 16 108 9 -3 24 -6 35
-6 18 0 19 -8 19 -121 0 -66 5 -129 10 -140 15 -27 56 -24 162 11 49 17 96 30
103 30 8 0 21 -13 30 -30 l15 -29 -116 -37 c-113 -37 -115 -38 -109 -63 4 -14
10 -29 14 -33 4 -5 56 8 115 28 117 38 129 37 124 -15 -3 -22 -14 -28 -106
-57 -56 -17 -109 -37 -117 -44 -35 -29 -17 -71 88 -207 33 -43 33 -44 3 -72
l-25 -23 -46 63 c-80 111 -95 128 -108 123 -9 -3 -12 7 -11 38 3 65 15 101 41
125 12 12 23 29 23 36 0 23 -34 60 -57 62 -24 1 -77 42 -92 72 -6 12 -20 25
-31 28 -23 7 -70 -18 -70 -38 -1 -15 -65 -57 -87 -57 -47 0 -70 -71 -34 -104
22 -20 36 -67 32 -108 -4 -47 56 -87 87 -56 15 15 82 14 111 -1 12 -7 34 -10
47 -7 22 6 23 5 12 -13 -10 -16 -3 -31 57 -111 l69 -93 -23 -18 c-13 -11 -29
-19 -35 -19 -7 0 -41 43 -77 95 -65 96 -94 119 -128 98 -9 -5 -45 -48 -81 -96
-36 -47 -68 -89 -71 -92 -9 -8 -59 16 -59 28 0 5 29 49 65 98 36 48 65 90 65
93 0 10 -32 36 -45 36 -7 0 -43 -40 -80 -90 -37 -49 -70 -90 -74 -90 -4 0 -18
11 -31 25 l-23 25 30 37 c113 143 127 171 98 203 -9 10 -66 35 -126 55 -106
36 -109 38 -109 66 0 16 6 32 13 34 7 3 59 -11 117 -30 57 -19 107 -32 111
-28 4 5 10 18 14 31 7 26 -9 35 -146 78 l-80 25 19 32 c22 37 27 37 135 -4 83
-31 141 -37 154 -16 4 6 10 68 13 137 l5 125 30 6 c17 4 33 7 38 8 4 0 7 -55
7 -124z m-269 -219 c74 -24 86 -30 82 -47 -3 -10 -10 -19 -15 -19 -5 0 -81 23
-169 51 -125 40 -159 55 -159 68 0 10 3 20 6 23 3 4 42 -6 87 -21 45 -15 121
-40 168 -55z m862 43 c-9 -9 -313 -109 -330 -109 -17 0 -26 34 -11 39 7 3 83
28 168 57 138 46 156 50 168 36 6 -9 9 -19 5 -23z m-600 -59 c22 -26 55 -25
84 2 22 21 23 21 43 3 19 -17 19 -19 3 -37 -26 -29 -8 -67 45 -95 2 -1 1 -11
-3 -22 -5 -17 -15 -21 -45 -21 -42 0 -60 -18 -60 -60 0 -17 -5 -21 -27 -18
-22 2 -29 10 -34 36 -9 43 -13 46 -59 45 -28 -1 -40 2 -41 13 -1 7 -2 19 -3
24 -1 6 10 16 24 23 29 14 39 59 19 84 -11 13 -10 17 6 29 24 18 27 18 48 -6z
m-481 -140 c10 -95 32 -167 75 -237 39 -65 39 -65 14 -87 -18 -17 -20 -16 -52
30 -59 86 -91 178 -96 282 l-6 94 29 -4 c28 -3 29 -5 36 -78z m1103 25 c1
-105 -47 -248 -111 -332 -29 -38 -39 -41 -54 -13 -9 17 -5 31 25 78 42 68 72
164 77 247 3 60 14 76 48 72 11 -2 15 -16 15 -52z m-950 -6 c135 -44 151 -58
120 -105 -25 -39 -146 -194 -151 -194 -10 0 -56 82 -79 140 -29 74 -45 200
-26 200 7 0 68 -18 136 -41z m877 -9 c-6 -73 -21 -130 -53 -195 -35 -73 -55
-99 -67 -91 -22 13 -152 205 -152 223 0 12 6 26 14 32 17 14 226 80 246 77 11
-1 14 -12 12 -46z m-636 -186 c-9 -22 -197 -274 -206 -274 -4 0 -12 6 -18 13
-10 12 -3 23 160 245 33 44 42 51 54 41 8 -7 13 -18 10 -25z m386 -104 c54
-74 98 -140 98 -146 0 -30 -30 -20 -60 19 -17 23 -54 74 -83 112 -29 39 -60
83 -70 98 -19 30 -16 62 5 55 7 -3 56 -65 110 -138z m-176 -15 c33 -47 67 -99
77 -115 l19 -30 -29 -12 c-43 -19 -270 -17 -306 2 l-27 16 61 84 c77 106 108
140 130 140 10 0 41 -35 75 -85z m-206 -176 c55 -13 201 -10 260 5 49 13 55
13 67 -2 22 -29 14 -39 -44 -58 -79 -25 -235 -25 -320 0 -35 10 -63 20 -63 22
0 2 5 15 12 29 9 19 16 24 32 19 12 -4 37 -11 56 -15z"/>
<path d="M2060 1200 c-27 -27 -25 -62 3 -88 46 -43 117 -17 117 42 0 19 -8 40
-18 49 -25 23 -78 21 -102 -3z"/>
<path d="M9795 1793 c-189 -44 -317 -127 -413 -267 -126 -181 -153 -416 -71
-613 78 -186 213 -308 419 -379 82 -28 270 -26 365 4 270 84 455 335 455 617
0 176 -64 329 -190 455 -126 126 -284 191 -459 189 -47 -1 -95 -3 -106 -6z
m242 -18 c84 -19 131 -38 210 -88 121 -75 226 -216 269 -362 24 -82 24 -258 0
-340 -50 -169 -174 -319 -326 -393 -102 -49 -158 -63 -268 -67 -345 -11 -645
277 -645 620 0 124 16 191 68 295 129 255 419 396 692 335z"/>
<path d="M9877 1754 c-4 -4 -7 -33 -7 -65 0 -59 -7 -69 -51 -69 -16 0 -19 7
-19 48 0 76 -7 80 -87 54 -38 -12 -96 -39 -129 -61 -57 -37 -162 -141 -184
-181 -13 -24 8 -45 60 -61 l38 -12 -16 -33 c-18 -39 -22 -40 -86 -18 -52 18
-66 12 -66 -32 0 -16 12 -24 55 -38 53 -16 55 -18 55 -53 0 -33 -1 -35 -27
-29 -89 20 -92 20 -102 -7 -12 -31 1 -162 23 -231 27 -84 103 -206 128 -206
10 0 68 60 68 71 0 17 27 9 49 -15 l23 -25 -36 -49 c-34 -47 -35 -50 -18 -66
29 -25 46 -19 80 29 l32 46 27 -18 c16 -9 30 -18 32 -19 1 -2 -9 -18 -23 -37
-40 -52 -35 -73 22 -90 68 -22 147 -37 194 -37 54 0 214 38 227 54 11 13 -20
84 -42 98 -14 8 -11 11 32 33 20 10 36 13 40 7 54 -83 73 -96 99 -70 19 19 14
36 -20 79 l-32 40 28 27 c25 25 28 26 37 9 6 -9 21 -29 34 -45 30 -35 46 -26
100 54 51 74 85 180 91 281 7 104 1 111 -69 91 l-55 -16 -7 35 c-3 19 -4 37
-2 40 3 2 27 12 53 22 52 18 68 47 41 70 -12 9 -24 8 -58 -4 -24 -8 -49 -15
-55 -15 -11 0 -41 58 -33 63 2 1 24 9 49 17 57 19 61 38 18 93 -76 98 -179
174 -285 209 -69 24 -83 15 -83 -53 0 -52 -6 -56 -57 -43 -19 5 -22 14 -25 68
-3 57 -5 61 -28 64 -14 2 -29 0 -33 -4z m51 -183 c3 -177 -1 -197 -35 -184
-10 4 -13 43 -13 177 0 95 3 176 7 180 4 4 14 5 23 4 13 -3 15 -30 18 -177z
m-148 120 c0 -26 -5 -31 -48 -45 -27 -9 -76 -34 -109 -56 -59 -38 -143 -122
-143 -144 0 -6 20 12 44 40 53 60 131 115 204 143 l52 21 0 -139 c0 -116 -3
-142 -16 -156 -19 -19 -12 -20 -164 35 -63 22 -130 46 -147 51 -18 5 -33 16
-33 24 0 22 119 145 177 182 56 36 138 72 166 72 12 1 17 -7 17 -28z m387 -18
c76 -37 178 -122 212 -177 26 -42 26 -45 0 -55 -18 -6 -34 5 -98 69 -70 70
-143 118 -223 144 -11 3 -18 15 -18 29 0 46 13 45 127 -10z m-30 -68 c47 -23
90 -56 131 -99 34 -35 62 -68 62 -73 0 -5 -53 -25 -118 -45 -64 -20 -125 -40
-133 -43 -9 -3 -24 1 -33 10 -13 14 -16 40 -16 151 0 157 -3 154 107 99z
m-265 -107 l3 -123 30 0 30 0 3 123 3 122 27 -6 c15 -3 33 -8 40 -10 10 -3 13
-32 11 -123 -4 -170 3 -175 179 -118 l103 34 16 -31 c9 -16 12 -32 7 -34 -5
-2 -56 -20 -114 -40 -90 -32 -105 -40 -102 -57 8 -45 21 -46 135 -8 59 20 109
34 111 32 2 -2 7 -19 11 -37 5 -23 3 -33 -7 -36 -7 -3 -59 -19 -116 -37 -152
-46 -154 -57 -42 -208 l62 -84 -26 -26 c-17 -16 -29 -22 -34 -15 -4 5 -36 49
-71 97 -60 83 -65 87 -85 74 -11 -8 -22 -21 -24 -28 -1 -8 27 -54 63 -103 36
-50 65 -91 65 -93 0 -7 -62 -33 -69 -29 -5 3 -37 47 -71 97 -34 50 -68 93 -76
96 -33 12 -62 -10 -123 -94 -36 -48 -68 -92 -72 -96 -4 -5 -21 -1 -38 8 l-32
16 37 52 c21 29 50 68 66 88 31 40 34 59 16 77 -25 25 -46 10 -107 -78 -35
-49 -66 -90 -69 -90 -9 0 -52 43 -52 52 0 5 23 38 51 74 117 150 114 161 -46
214 l-110 37 -3 36 c-2 20 1 37 5 37 5 0 58 -16 117 -36 115 -38 125 -37 126
13 0 19 -13 26 -99 54 -123 39 -126 41 -112 65 26 46 23 46 125 9 172 -61 186
-52 186 127 l0 117 28 4 c15 2 30 5 34 6 4 0 9 -54 10 -121z m592 -154 c3 -9
4 -19 1 -24 -8 -13 -317 -112 -332 -106 -7 3 -13 12 -13 20 0 10 50 32 163 69
193 65 174 61 181 41z m-931 -45 c129 -42 157 -55 157 -70 0 -11 -6 -19 -13
-19 -14 0 -329 99 -336 106 -8 7 9 34 21 34 7 0 84 -23 171 -51z m-152 -149
c4 -25 9 -63 12 -86 8 -59 43 -146 77 -193 35 -48 36 -53 11 -75 -18 -16 -20
-15 -44 14 -56 66 -106 204 -113 310 -4 62 3 82 29 78 18 -2 23 -12 28 -48z
m1109 -4 c0 -89 -17 -157 -66 -253 -56 -113 -69 -126 -95 -95 -17 22 -17 24
11 66 48 71 71 136 83 233 11 92 14 98 55 102 8 1 12 -16 12 -53z m-960 -2
c63 -20 121 -41 128 -47 22 -18 12 -51 -34 -112 -25 -33 -60 -79 -77 -102 -17
-24 -34 -43 -37 -43 -10 0 -68 102 -84 147 -25 71 -39 193 -22 193 6 0 62 -16
126 -36z m885 -31 c-4 -38 -17 -96 -30 -129 -27 -71 -72 -147 -85 -142 -15 6
-160 213 -160 229 0 9 6 21 13 27 12 11 230 79 256 81 11 1 12 -12 6 -66z
m-636 -147 c9 -10 -10 -42 -85 -147 -119 -165 -111 -157 -130 -138 -14 15 -5
29 88 157 57 78 106 142 109 142 4 0 12 -6 18 -14z m318 -28 c16 -24 63 -88
102 -142 65 -89 71 -100 57 -114 -9 -9 -17 -14 -20 -11 -2 2 -49 66 -105 143
-80 109 -99 141 -90 152 17 21 22 18 56 -28z m-86 -143 l77 -110 -26 -15 c-57
-32 -342 -14 -330 21 2 4 38 56 81 114 63 86 82 106 100 103 14 -2 46 -38 98
-113z m-221 -146 c55 -13 200 -10 258 5 50 13 53 12 67 -8 20 -28 20 -30 -17
-43 -104 -37 -248 -40 -355 -6 -56 17 -60 22 -42 54 7 15 16 18 32 13 12 -4
38 -11 57 -15z"/>
<path d="M9847 1310 c-32 -33 -57 -50 -73 -50 -29 0 -64 -33 -64 -60 0 -12 11
-31 25 -44 19 -18 26 -37 31 -84 9 -81 28 -100 83 -82 36 12 70 10 133 -5 37
-10 72 26 64 66 -6 32 9 75 36 102 33 32 16 93 -27 100 -27 4 -95 49 -95 63 0
15 -34 44 -51 44 -8 0 -36 -23 -62 -50z m59 -70 c13 0 33 9 44 20 16 16 25 18
40 10 22 -12 26 -25 10 -35 -29 -18 0 -95 36 -95 8 0 14 -6 14 -13 0 -22 -23
-37 -56 -37 -36 0 -50 -13 -56 -50 -2 -19 -10 -26 -30 -28 -24 -3 -28 0 -28
20 0 40 -24 63 -67 63 -34 0 -38 3 -41 28 -3 22 1 27 18 27 29 0 47 42 31 76
-10 22 -9 30 6 46 17 19 18 19 36 -6 11 -16 28 -26 43 -26z"/>
<path d="M365 1240 c-18 -29 10 -229 43 -312 14 -35 40 -36 48 -2 12 49 -14
216 -47 297 -11 27 -33 36 -44 17z"/>
</g>
</svg>
