<?xml version="1.0" standalone="no"?>
<!DOCTYPE svg PUBLIC "-//W3C//DTD SVG 20010904//EN"
 "http://www.w3.org/TR/2001/REC-SVG-20010904/DTD/svg10.dtd">
<svg version="1.0" xmlns="http://www.w3.org/2000/svg"
 width="695.000000pt" height="342.000000pt" viewBox="0 0 695.000000 342.000000"
 preserveAspectRatio="xMidYMid meet">
<metadata>
Created by potrace 1.15, written by Peter Selinger 2001-2017
</metadata>
<g transform="translate(0.000000,342.000000) scale(0.100000,-0.100000)"
fill="#AAAAAA" stroke="none">
<path d="M532 3224 c-23 -9 -47 -25 -53 -36 -6 -11 -15 -75 -20 -141 -10 -141
-11 -2378 -1 -2510 7 -83 9 -91 39 -117 43 -38 92 -47 147 -26 38 14 62 40
190 206 208 268 245 313 354 424 185 188 323 272 558 339 142 41 480 103 494
90 2 -2 -1 -12 -8 -21 -28 -40 -84 -157 -109 -229 -24 -71 -26 -91 -26 -228 0
-127 4 -161 23 -220 73 -228 217 -398 425 -503 121 -60 141 -63 515 -74 390
-11 1920 -3 2020 11 228 31 485 235 584 464 47 108 60 175 60 312 0 147 -15
224 -69 342 -44 95 -84 153 -167 239 l-69 72 53 5 c29 4 154 12 277 18 176 10
226 10 229 0 11 -33 57 -72 102 -85 69 -20 287 -64 402 -79 113 -16 135 -10
187 49 l34 38 -7 255 c-8 285 -7 280 -84 317 -44 21 -99 15 -317 -31 -224 -48
-255 -59 -295 -100 -33 -34 -36 -35 -113 -35 -43 0 -243 7 -445 15 -202 8
-486 19 -632 25 -1966 76 -2277 93 -2674 151 -348 51 -553 118 -743 245 -143
95 -259 222 -571 624 -153 198 -197 227 -290 194z m4263 -1723 c291 -8 298
-10 417 -88 84 -55 148 -127 193 -218 l35 -71 0 -149 0 -148 -36 -74 c-72
-151 -218 -270 -360 -294 -79 -14 -1714 -23 -2039 -11 l-250 8 -79 38 c-105
51 -216 159 -266 261 l-35 70 0 150 0 150 33 66 c61 121 172 225 294 276 63
26 65 27 403 33 488 9 1386 10 1690 1z"/>
</g>
</svg>
