<?xml version="1.0" standalone="no"?>
<!DOCTYPE svg PUBLIC "-//W3C//DTD SVG 20010904//EN"
 "http://www.w3.org/TR/2001/REC-SVG-20010904/DTD/svg10.dtd">
<svg version="1.0" xmlns="http://www.w3.org/2000/svg"
 width="351.000000pt" height="341.000000pt" viewBox="0 0 351.000000 341.000000"
 preserveAspectRatio="xMidYMid meet">
<metadata>
Created by potrace 1.15, written by Peter Selinger 2001-2017
</metadata>
<g transform="translate(0.000000,341.000000) scale(0.100000,-0.100000)"
fill="#FFFFFF" stroke="none">
<path d="M337 3276 c-63 -31 -88 -56 -117 -114 -32 -63 -33 -159 -2 -218 13
-26 238 -257 607 -625 l587 -584 -587 -585 c-323 -322 -595 -601 -604 -620
-61 -120 -20 -256 99 -327 46 -28 64 -33 116 -33 121 0 102 -16 737 618 317
317 584 579 593 580 11 3 218 -197 598 -576 636 -636 619 -622 737 -622 92 0
180 53 221 134 29 57 30 166 2 220 -12 21 -272 290 -607 625 l-587 586 588
587 c515 514 590 593 605 635 41 115 5 219 -106 302 -9 8 -42 19 -72 26 -66
16 -143 2 -196 -35 -19 -13 -290 -278 -602 -589 -313 -311 -570 -568 -573
-571 -3 -2 -269 260 -592 582 -484 484 -595 591 -635 607 -67 29 -148 27 -210
-3z"/>
</g>
</svg>
