<?xml version="1.0" standalone="no"?>
<!DOCTYPE svg PUBLIC "-//W3C//DTD SVG 20010904//EN"
 "http://www.w3.org/TR/2001/REC-SVG-20010904/DTD/svg10.dtd">
<svg version="1.0" xmlns="http://www.w3.org/2000/svg"
 width="156.000000pt" height="171.000000pt" viewBox="0 0 156.000000 171.000000"
 preserveAspectRatio="xMidYMid meet">
<metadata>
Created by potrace 1.15, written by Peter Selinger 2001-2017
</metadata>
<g transform="translate(0.000000,171.000000) scale(0.100000,-0.100000)"
fill="#FFFFFF" stroke="none">
<path d="M230 1670 c-18 -18 -20 -33 -20 -158 0 -125 2 -140 20 -160 29 -31
73 -29 99 4 19 24 21 40 21 151 0 119 -7 158 -34 175 -21 14 -66 8 -86 -12z"/>
<path d="M700 1670 c-19 -19 -20 -33 -20 -399 0 -368 1 -379 21 -405 28 -35
70 -35 98 0 20 26 21 37 21 405 0 366 -1 380 -20 399 -11 11 -33 20 -50 20
-17 0 -39 -9 -50 -20z"/>
<path d="M1184 1682 c-30 -20 -34 -55 -34 -292 l0 -241 25 -24 c31 -32 59 -32
90 0 l25 24 0 251 c0 237 -1 251 -20 270 -20 20 -65 26 -86 12z"/>
<path d="M117 1182 c-24 -26 -21 -75 4 -98 19 -17 37 -19 161 -19 135 0 140 1
159 24 25 30 24 66 -1 91 -18 18 -33 20 -163 20 -127 0 -146 -2 -160 -18z"/>
<path d="M1066 959 c-32 -25 -34 -66 -6 -97 19 -21 30 -22 160 -22 127 0 142
2 160 20 20 20 26 65 12 86 -17 27 -56 34 -175 34 -111 0 -127 -2 -151 -21z"/>
<path d="M235 915 l-25 -24 0 -406 c0 -392 1 -406 20 -425 20 -20 65 -26 86
-12 32 21 34 53 34 447 l0 396 -25 24 c-13 14 -33 25 -45 25 -11 0 -32 -11
-45 -25z"/>
<path d="M613 710 c-44 -18 -56 -77 -23 -110 18 -18 33 -20 160 -20 127 0 142
2 160 20 25 25 26 61 1 91 -18 23 -26 24 -148 26 -70 2 -138 -2 -150 -7z"/>
<path d="M1194 708 c-40 -19 -44 -47 -44 -334 0 -271 4 -306 34 -326 21 -14
66 -8 86 12 19 19 20 33 20 314 0 265 -2 296 -17 314 -23 26 -52 33 -79 20z"/>
<path d="M701 424 c-19 -24 -21 -40 -21 -185 0 -146 2 -161 20 -179 26 -26 74
-26 100 0 18 18 20 33 20 179 0 145 -2 161 -21 185 -13 17 -30 26 -49 26 -19
0 -36 -9 -49 -26z"/>
</g>
</svg>
