<?xml version="1.0" standalone="no"?>
<!DOCTYPE svg PUBLIC "-//W3C//DTD SVG 20010904//EN"
 "http://www.w3.org/TR/2001/REC-SVG-20010904/DTD/svg10.dtd">
<svg version="1.0" xmlns="http://www.w3.org/2000/svg"
 width="150.000000pt" height="146.000000pt" viewBox="0 0 150.000000 146.000000"
 preserveAspectRatio="xMidYMid meet">
<metadata>
Created by potrace 1.15, written by Peter Selinger 2001-2017
</metadata>
<g transform="translate(0.000000,146.000000) scale(0.100000,-0.100000)"
fill="#FFFFFF" stroke="none">
<path d="M572 1350 c-170 -46 -337 -177 -414 -325 -61 -117 -81 -209 -76 -345
8 -188 60 -304 197 -440 133 -131 277 -192 461 -193 116 -1 188 16 300 70 79
38 108 59 175 127 170 171 234 401 175 630 -54 213 -230 399 -440 468 -96 31
-280 35 -378 8z m363 -79 c149 -50 275 -160 340 -296 44 -94 59 -163 59 -265
-1 -134 -54 -272 -144 -377 -78 -90 -203 -162 -327 -188 -300 -64 -599 119
-689 420 -28 92 -24 240 9 332 14 40 37 94 53 120 35 61 145 172 206 207 149
87 325 103 493 47z"/>
<path d="M345 787 c-39 -39 -44 -70 -20 -117 18 -35 43 -50 84 -50 46 0 78 19
96 57 30 63 -9 130 -82 140 -39 5 -46 2 -78 -30z"/>
<path d="M679 781 c-23 -24 -29 -38 -29 -74 0 -38 5 -49 31 -71 73 -62 182 -3
165 89 -15 79 -111 111 -167 56z"/>
<path d="M1007 784 c-34 -34 -42 -75 -23 -113 37 -70 107 -82 162 -27 36 36
43 70 23 109 -31 61 -116 78 -162 31z"/>
</g>
</svg>
