<?xml version="1.0"?>
<svg xmlns="http://www.w3.org/2000/svg" viewBox="0 0 50 50">

    <path fill="#AAAAAA" d="M 24.429688 9 C 15.571687 9 2 16.168 2 25 C 2 33.832 15.571688 41 24.429688 41 C 29.275688 41 30 30.976 30 25 C 30 19.024 29.275688 9 24.429688 9 z M 31.335938 12 C 31.553937 12.615 31.742969 13.291 31.917969 14 L 48 14 L 48 12 L 31.335938 12 z M 32.625 18 C 32.7 18.641 32.764406 19.308 32.816406 20 L 48 20 L 48 18 L 32.625 18 z M 32.984375 24 C 32.989375 24.335 33 24.656 33 25 C 33 25.344 32.989375 25.665 32.984375 26 L 48 26 L 48 24 L 32.984375 24 z M 32.816406 30 C 32.764406 30.692 32.7 31.359 32.625 32 L 48 32 L 48 30 L 32.816406 30 z M 31.919922 36 C 31.744922 36.709 31.553938 37.385 31.335938 38 L 48 38 L 48 36 L 31.919922 36 z"/>
</svg>
