<?xml version="1.0" standalone="no"?>
<!DOCTYPE svg PUBLIC "-//W3C//DTD SVG 20010904//EN"
 "http://www.w3.org/TR/2001/REC-SVG-20010904/DTD/svg10.dtd">
<svg version="1.0" xmlns="http://www.w3.org/2000/svg"
 width="421.000000pt" height="263.000000pt" viewBox="0 0 421.000000 263.000000"
 preserveAspectRatio="xMidYMid meet">
<metadata>
Created by potrace 1.15, written by Peter Selinger 2001-2017
</metadata>
<g transform="translate(0.000000,263.000000) scale(0.100000,-0.100000)"
fill="#FFFFFF" stroke="none">
<path d="M3605 2130 c-65 -10 -111 -31 -171 -76 -64 -48 -76 -62 -106 -115
-64 -115 -74 -225 -32 -336 14 -37 28 -78 31 -91 5 -19 -39 -67 -279 -307
-157 -157 -292 -285 -301 -285 -9 0 -19 4 -22 10 -7 11 -54 33 -110 50 -42 12
-174 9 -230 -5 -16 -5 -47 -19 -69 -32 l-38 -25 -254 253 c-167 167 -254 260
-254 274 0 11 6 29 14 40 24 34 46 126 46 189 0 112 -38 205 -114 282 -93 92
-235 139 -353 115 -173 -34 -302 -163 -332 -330 -16 -86 -1 -183 36 -243 13
-21 23 -46 23 -55 0 -19 -399 -423 -418 -423 -5 0 -38 14 -72 32 -58 29 -69
31 -164 31 -94 0 -105 -2 -166 -33 -88 -44 -161 -117 -196 -193 -22 -49 -29
-81 -32 -153 -6 -133 24 -215 111 -305 40 -42 71 -63 123 -84 212 -86 426 -4
530 201 27 53 29 66 29 168 0 103 -2 115 -28 160 -15 27 -27 56 -27 66 0 23
397 420 419 420 9 0 42 -12 72 -27 49 -25 64 -28 159 -28 98 1 109 3 169 33
l65 33 253 -253 c139 -139 253 -260 253 -270 0 -9 -12 -40 -27 -70 -25 -48
-28 -63 -28 -158 1 -112 14 -159 72 -242 31 -46 113 -108 173 -132 94 -38 251
-31 340 15 67 34 135 104 170 176 29 58 35 81 38 158 3 74 0 100 -18 150 -42
116 -65 80 249 394 278 279 306 301 336 272 22 -20 139 -51 193 -51 182 0 329
107 389 283 39 114 26 215 -43 332 -40 69 -110 127 -196 164 -52 23 -145 32
-213 21z m-2071 -214 c64 -28 106 -70 137 -134 25 -55 31 -144 10 -188 -7 -16
-20 -44 -29 -62 -18 -38 -74 -85 -126 -107 -49 -21 -152 -19 -201 4 -44 20
-103 71 -129 112 -27 43 -39 132 -26 194 14 66 73 145 127 169 21 9 45 21 53
26 31 18 127 11 184 -14z m-989 -990 c59 -28 118 -86 140 -138 8 -22 15 -66
15 -105 0 -75 -20 -127 -67 -180 -77 -86 -220 -111 -318 -54 -99 57 -138 123
-139 233 -1 49 4 82 12 89 6 7 12 20 12 29 0 15 45 69 87 104 60 50 178 60
258 22z m2059 -87 c47 -13 120 -79 149 -134 28 -54 30 -163 3 -223 -10 -23
-23 -42 -27 -42 -4 0 -10 -9 -14 -19 -9 -29 -85 -75 -149 -91 -96 -23 -199 15
-264 98 -43 54 -54 87 -55 162 0 47 6 77 21 106 69 136 186 186 336 143z"/>
</g>
</svg>
