<?xml version="1.0" standalone="no"?>
<!DOCTYPE svg PUBLIC "-//W3C//DTD SVG 20010904//EN"
 "http://www.w3.org/TR/2001/REC-SVG-20010904/DTD/svg10.dtd">
<svg version="1.0" xmlns="http://www.w3.org/2000/svg"
 width="630.000000pt" height="795.000000pt" viewBox="0 0 630.000000 795.000000"
 preserveAspectRatio="xMidYMid meet">
<metadata>
Created by potrace 1.15, written by Peter Selinger 2001-2017
</metadata>
<g transform="translate(0.000000,795.000000) scale(0.100000,-0.100000)"
fill="#FFFFFF" stroke="none">
<path d="M1090 7908 c-31 -16 -51 -36 -67 -67 -21 -41 -23 -56 -23 -222 l0
-177 -277 -4 c-211 -4 -289 -9 -323 -20 -175 -58 -296 -181 -341 -346 -18 -64
-19 -182 -19 -3317 0 -3582 -5 -3301 61 -3426 38 -71 136 -167 207 -203 117
-59 -63 -56 2822 -56 2324 0 2653 2 2709 15 177 42 315 173 363 344 17 63 18
197 18 3321 0 2893 -2 3262 -15 3315 -49 187 -218 337 -410 365 -38 5 -175 10
-302 10 l-233 0 0 166 c0 193 -8 231 -61 279 -62 55 -146 57 -214 3 -48 -38
-55 -70 -55 -268 l0 -180 -229 0 -230 0 -3 193 c-3 184 -4 193 -27 226 -27 38
-90 70 -137 71 -51 0 -115 -40 -141 -90 -22 -40 -23 -55 -23 -222 l0 -178
-225 0 -225 0 0 163 c0 178 -8 221 -47 268 -51 61 -129 75 -197 36 -78 -44
-81 -54 -84 -273 l-3 -194 -230 0 -229 0 0 178 c0 164 -2 181 -22 222 -26 50
-89 90 -144 90 -51 0 -115 -40 -141 -90 -22 -40 -23 -55 -23 -222 l0 -178
-225 0 -225 0 0 163 c0 178 -8 221 -47 268 -51 61 -129 75 -197 36 -78 -44
-81 -54 -84 -273 l-3 -194 -230 0 -229 0 0 178 c0 164 -2 181 -22 222 -26 50
-89 90 -143 90 -17 0 -51 -10 -75 -22z m-90 -1158 c0 -208 3 -221 59 -274 24
-23 42 -30 84 -34 70 -6 120 17 155 71 27 40 27 44 30 234 l4 193 224 0 224 0
0 -183 c0 -170 2 -186 23 -227 31 -61 65 -83 134 -88 48 -3 64 0 92 20 74 50
76 57 79 279 l3 199 230 0 229 0 0 -194 c0 -184 1 -195 23 -227 39 -58 83 -81
148 -77 63 5 110 32 137 81 14 27 18 65 20 225 l4 192 224 0 224 0 0 -183 c0
-170 2 -186 23 -227 34 -67 65 -85 147 -85 63 0 71 3 100 30 57 54 60 67 60
275 l0 190 230 0 230 0 0 -194 c0 -184 1 -195 23 -227 35 -52 82 -79 139 -79
60 0 98 19 135 67 l28 36 3 199 4 198 223 0 223 0 4 -187 c3 -209 12 -243 72
-286 45 -32 149 -32 191 1 59 47 64 68 65 280 l0 192 235 0 235 0 0 -440 0
-440 -382 0 c-366 0 -383 -1 -424 -21 -120 -58 -119 -230 2 -289 38 -19 62
-20 422 -20 l382 0 0 -2580 0 -2580 -2595 0 -2595 0 0 2580 0 2580 1783 0
c1716 0 1784 1 1823 19 119 54 121 229 4 289 l-44 22 -1783 0 -1783 0 0 440 0
440 235 0 235 0 0 -190z"/>
<path d="M1273 4619 c-44 -21 -75 -62 -87 -112 -9 -39 11 -107 42 -141 51 -55
62 -56 434 -56 313 0 347 2 384 19 62 28 89 73 89 148 0 67 -16 98 -69 137
-26 20 -42 21 -389 24 -351 2 -363 2 -404 -19z"/>
<path d="M2835 4626 c-125 -54 -125 -241 -1 -297 39 -18 88 -19 1071 -19 983
0 1032 1 1071 19 62 28 89 73 89 147 0 51 -4 66 -29 98 -53 70 15 66 -1133 66
-840 -1 -1044 -3 -1068 -14z"/>
<path d="M1295 3765 c-106 -38 -144 -170 -74 -259 44 -56 47 -56 442 -56 361
0 364 0 397 23 48 32 72 69 77 120 7 61 -25 128 -75 159 -36 23 -42 23 -382
25 -279 2 -353 0 -385 -12z"/>
<path d="M2865 3771 c-46 -11 -79 -37 -103 -80 -44 -78 -21 -166 57 -218 l34
-23 1052 0 1052 0 34 23 c18 12 44 38 56 56 46 69 19 177 -57 224 l-35 22
-1030 2 c-566 0 -1044 -2 -1060 -6z"/>
<path d="M1285 2856 c-43 -19 -91 -77 -99 -120 -13 -71 32 -153 101 -182 25
-11 106 -14 375 -14 313 0 347 2 384 19 53 24 86 71 92 130 6 61 -16 111 -64
147 l-37 29 -361 2 c-283 2 -368 0 -391 -11z"/>
<path d="M2828 2850 c-58 -31 -83 -74 -83 -145 0 -73 27 -118 89 -146 39 -18
88 -19 1071 -19 983 0 1032 1 1071 19 62 28 89 73 89 146 0 72 -25 115 -85
145 -38 20 -62 20 -1077 20 -1007 -1 -1039 -1 -1075 -20z"/>
<path d="M1268 1890 c-38 -20 -71 -66 -82 -112 -19 -81 51 -180 136 -193 24
-3 192 -5 373 -3 366 3 369 4 417 70 18 26 23 46 23 95 0 69 -17 101 -75 141
-33 22 -36 22 -394 22 -337 -1 -363 -2 -398 -20z"/>
<path d="M2820 1888 c-49 -34 -72 -71 -77 -125 -7 -63 22 -122 74 -154 l38
-24 1051 0 1050 0 41 27 c53 35 77 86 71 150 -6 55 -28 92 -78 126 l-33 22
-1052 0 -1052 0 -33 -22z"/>
</g>
</svg>
