<?xml version="1.0" standalone="no"?>
<!DOCTYPE svg PUBLIC "-//W3C//DTD SVG 20010904//EN"
 "http://www.w3.org/TR/2001/REC-SVG-20010904/DTD/svg10.dtd">
<svg version="1.0" xmlns="http://www.w3.org/2000/svg"
 width="652.000000pt" height="325.000000pt" viewBox="0 0 652.000000 325.000000"
 >

<g transform="translate(0.000000,325.000000) scale(0.100000,-0.100000)"
fill="#CCCCCC" stroke="none">
<path d="M485 2819 c-4 -12 -18 -37 -31 -56 -28 -42 -31 -71 -6 -80 16 -6 268
-151 302 -173 8 -6 29 -17 45 -25 17 -9 37 -20 45 -25 34 -22 276 -163 295
-171 11 -5 34 -18 50 -29 41 -27 75 -41 85 -35 4 3 17 23 28 44 12 22 27 49
34 60 10 17 9 23 -6 40 -11 12 -23 21 -29 21 -5 0 -46 23 -92 50 -46 28 -88
50 -94 50 -6 0 -11 4 -11 9 0 5 -12 14 -27 20 -16 7 -37 17 -48 24 -11 7 -49
29 -85 50 -36 20 -72 42 -80 47 -92 58 -348 200 -362 200 -4 0 -10 -9 -13 -21z"/>
<path d="M5860 2825 c-14 -8 -88 -51 -165 -95 -77 -44 -147 -85 -155 -90 -8
-5 -44 -27 -80 -47 -36 -21 -74 -43 -85 -50 -11 -7 -32 -17 -47 -24 -16 -6
-28 -15 -28 -20 0 -5 -5 -9 -10 -9 -6 0 -48 -21 -93 -47 -45 -27 -90 -52 -101
-58 -39 -20 -40 -37 -4 -97 24 -42 39 -58 55 -58 16 0 335 177 413 230 8 6 29
17 45 25 17 9 37 20 45 25 8 5 67 39 130 75 63 36 122 70 130 76 8 5 25 13 38
19 28 12 28 38 -2 83 -13 19 -27 44 -31 56 -7 25 -21 26 -55 6z"/>
<path d="M1758 2620 c-9 -5 -19 -24 -23 -41 -4 -17 -13 -42 -21 -57 -8 -15
-14 -33 -14 -41 0 -7 -7 -34 -15 -60 -64 -205 -113 -559 -101 -736 14 -218 41
-407 72 -506 8 -26 14 -57 14 -70 1 -13 7 -35 15 -49 8 -14 14 -36 15 -50 0
-14 6 -34 14 -45 7 -11 17 -35 21 -53 12 -55 39 -65 137 -52 104 14 263 48
305 66 17 8 40 14 51 14 12 0 23 4 27 9 3 5 22 15 43 22 39 12 157 63 182 79
8 5 37 21 65 36 27 14 81 48 120 75 363 251 482 546 331 823 -11 21 -27 50
-35 64 -34 63 -312 312 -348 312 -4 0 -14 7 -23 15 -19 17 -172 94 -250 125
-30 12 -63 26 -74 32 -20 11 -70 25 -213 62 -106 28 -269 42 -295 26z m266
-216 c92 -23 200 -56 211 -64 6 -4 21 -11 35 -15 51 -15 219 -104 295 -156
115 -79 227 -196 266 -277 28 -59 32 -77 32 -152 0 -77 -3 -91 -32 -146 -18
-34 -53 -85 -78 -113 -64 -73 -197 -177 -292 -228 -73 -40 -100 -53 -203 -97
-145 -62 -343 -105 -368 -80 -17 17 -57 173 -81 309 -5 33 -14 87 -20 119 -17
99 -22 295 -9 391 6 50 15 119 19 155 9 70 34 188 57 259 8 25 14 52 14 62 0
49 52 60 154 33z"/>
<path d="M4465 2590 c-133 -22 -213 -41 -242 -58 -12 -6 -31 -12 -42 -12 -10
0 -32 -6 -48 -14 -15 -8 -68 -31 -118 -52 -49 -21 -97 -42 -105 -49 -8 -6 -35
-21 -60 -35 -171 -91 -356 -257 -435 -391 -95 -161 -99 -352 -11 -501 14 -24
30 -53 35 -65 6 -11 56 -68 113 -125 137 -139 309 -249 508 -328 30 -12 63
-26 74 -32 25 -13 104 -35 271 -77 69 -17 210 -24 233 -12 11 6 23 25 27 42 4
17 13 42 21 57 8 15 14 37 14 48 0 12 7 35 15 50 8 16 15 38 15 48 0 11 6 42
14 70 28 100 47 213 63 391 16 169 16 191 0 355 -17 172 -34 274 -63 376 -8
28 -14 60 -14 72 0 12 -6 36 -14 54 -7 18 -23 65 -36 103 -38 116 -34 114
-215 85z m54 -222 c26 -69 50 -168 71 -298 6 -36 15 -91 21 -123 17 -99 21
-248 10 -357 -21 -201 -31 -270 -39 -288 -5 -9 -13 -39 -16 -65 -4 -26 -14
-63 -22 -82 -8 -19 -14 -45 -14 -59 0 -56 -55 -70 -159 -40 -141 40 -197 58
-216 71 -11 7 -25 13 -32 13 -14 0 -130 56 -212 101 -138 77 -286 216 -341
321 -30 58 -33 71 -33 153 0 83 2 95 34 155 61 117 215 255 389 349 66 36 81
43 195 91 11 5 49 18 85 29 36 11 85 26 110 35 25 8 71 15 103 15 51 1 58 -2
66 -21z"/>
<path d="M5155 1807 c-13 -10 -15 -27 -13 -82 l3 -70 485 0 485 0 3 72 c2 62
0 73 -16 82 -28 15 -926 13 -947 -2z"/>
<path d="M287 1803 c-4 -3 -7 -37 -7 -74 0 -56 3 -70 18 -78 12 -6 195 -10
480 -10 372 0 463 3 472 14 6 8 10 42 8 82 l-3 68 -481 3 c-264 1 -484 -1
-487 -5z"/>
<path d="M1215 1219 c-4 -5 -17 -14 -28 -20 -12 -5 -29 -13 -37 -18 -26 -17
-184 -107 -200 -114 -8 -4 -28 -16 -45 -27 -16 -11 -39 -24 -50 -30 -11 -5
-27 -14 -35 -19 -8 -6 -82 -49 -165 -96 -82 -47 -157 -90 -165 -96 -8 -5 -25
-13 -38 -19 -28 -12 -28 -38 2 -83 13 -19 27 -44 31 -56 8 -25 23 -27 52 -6
12 8 43 26 70 40 26 14 55 30 63 35 32 21 171 100 175 100 2 0 24 13 48 30 24
16 55 34 68 40 13 6 38 19 54 30 17 11 42 25 58 31 15 6 27 15 27 20 0 5 5 9
11 9 6 0 48 23 94 50 46 28 88 50 94 50 6 0 18 11 26 24 15 22 14 27 -17 80
-27 45 -38 56 -60 56 -15 0 -30 -5 -33 -11z"/>
<path d="M5092 1173 c-18 -31 -31 -61 -29 -67 5 -12 210 -136 226 -136 5 0 11
-4 13 -8 2 -5 39 -28 83 -52 44 -23 99 -56 123 -71 24 -16 45 -29 47 -29 2 0
64 -35 137 -78 161 -93 206 -118 211 -112 17 21 67 121 67 134 0 9 -8 20 -17
23 -10 4 -88 48 -173 97 -85 50 -166 97 -180 104 -14 6 -32 16 -40 22 -8 5
-78 46 -155 90 -77 45 -147 85 -155 91 -8 5 -25 13 -37 18 -11 6 -24 15 -28
20 -3 6 -18 11 -33 11 -22 0 -33 -11 -60 -57z"/>
</g>
</svg>
