<?xml version="1.0" standalone="no"?>
<!DOCTYPE svg PUBLIC "-//W3C//DTD SVG 20010904//EN"
 "http://www.w3.org/TR/2001/REC-SVG-20010904/DTD/svg10.dtd">
<svg version="1.0" xmlns="http://www.w3.org/2000/svg"
 width="149.000000pt" height="160.000000pt" viewBox="0 0 149.000000 160.000000"
 preserveAspectRatio="xMidYMid meet">
<metadata>
Created by potrace 1.15, written by Peter Selinger 2001-2017
</metadata>
<g transform="translate(0.000000,160.000000) scale(0.100000,-0.100000)"
fill="#FFFFFF" stroke="none">
<path d="M663 1496 c-100 -33 -178 -100 -224 -191 -21 -43 -24 -64 -24 -155 0
-91 3 -112 25 -155 129 -264 502 -271 640 -13 29 54 35 75 38 150 4 74 1 98
-18 149 -30 79 -106 159 -187 196 -69 32 -184 41 -250 19z"/>
<path d="M355 841 c-51 -13 -91 -39 -128 -82 -75 -87 -107 -192 -114 -380 -6
-151 3 -183 67 -246 62 -61 84 -63 586 -63 392 0 460 2 501 16 58 20 88 43
122 92 25 36 26 42 25 182 0 157 -14 232 -60 321 -50 99 -115 150 -207 164
-45 7 -52 5 -122 -38 -87 -54 -186 -87 -260 -87 -74 0 -174 33 -258 86 -71 44
-94 49 -152 35z"/>
</g>
</svg>
